%TF.GenerationSoftware,KiCad,Pcbnew,(5.1.6)-1*%
%TF.CreationDate,2021-09-27T14:34:02+03:00*%
%TF.ProjectId,emitter,656d6974-7465-4722-9e6b-696361645f70,rev?*%
%TF.SameCoordinates,Original*%
%TF.FileFunction,Copper,L1,Top*%
%TF.FilePolarity,Positive*%
%FSLAX46Y46*%
G04 Gerber Fmt 4.6, Leading zero omitted, Abs format (unit mm)*
G04 Created by KiCad (PCBNEW (5.1.6)-1) date 2021-09-27 14:34:02*
%MOMM*%
%LPD*%
G01*
G04 APERTURE LIST*
%TA.AperFunction,ComponentPad*%
%ADD10C,2.000000*%
%TD*%
%TA.AperFunction,ComponentPad*%
%ADD11C,2.400000*%
%TD*%
%TA.AperFunction,ComponentPad*%
%ADD12R,2.400000X2.400000*%
%TD*%
%TA.AperFunction,ComponentPad*%
%ADD13R,2.000000X2.000000*%
%TD*%
%TA.AperFunction,ComponentPad*%
%ADD14O,2.000000X2.000000*%
%TD*%
%TA.AperFunction,ComponentPad*%
%ADD15R,1.600000X1.600000*%
%TD*%
%TA.AperFunction,ComponentPad*%
%ADD16C,1.600000*%
%TD*%
%TA.AperFunction,ComponentPad*%
%ADD17C,8.600000*%
%TD*%
%TA.AperFunction,ComponentPad*%
%ADD18C,0.900000*%
%TD*%
%TA.AperFunction,ComponentPad*%
%ADD19O,1.600000X1.600000*%
%TD*%
%TA.AperFunction,ComponentPad*%
%ADD20C,2.340000*%
%TD*%
%TA.AperFunction,ComponentPad*%
%ADD21R,1.800000X1.800000*%
%TD*%
%TA.AperFunction,ComponentPad*%
%ADD22O,1.800000X1.800000*%
%TD*%
%TA.AperFunction,ViaPad*%
%ADD23C,0.800000*%
%TD*%
%TA.AperFunction,Conductor*%
%ADD24C,0.750000*%
%TD*%
%TA.AperFunction,Conductor*%
%ADD25C,0.500000*%
%TD*%
G04 APERTURE END LIST*
D10*
%TO.P,SW1,1*%
%TO.N,+5V*%
X122500000Y-123000000D03*
%TO.P,SW1,2*%
%TO.N,Net-(J2-Pad1)*%
X122500000Y-127500000D03*
%TO.P,SW1,1*%
%TO.N,+5V*%
X116000000Y-123000000D03*
%TO.P,SW1,2*%
%TO.N,Net-(J2-Pad1)*%
X116000000Y-127500000D03*
%TD*%
D11*
%TO.P,J2,2*%
%TO.N,GND*%
X96500000Y-125000000D03*
D12*
%TO.P,J2,1*%
%TO.N,Net-(J2-Pad1)*%
X100000000Y-125000000D03*
%TD*%
D13*
%TO.P,C1,1*%
%TO.N,Net-(C1-Pad1)*%
X85000000Y-88000000D03*
D14*
%TO.P,C1,2*%
%TO.N,GND*%
X100000000Y-88000000D03*
%TD*%
D15*
%TO.P,C2,1*%
%TO.N,+5V*%
X85000000Y-125000000D03*
D16*
%TO.P,C2,2*%
%TO.N,GND*%
X87000000Y-125000000D03*
%TD*%
%TO.P,C3,2*%
%TO.N,Net-(C3-Pad2)*%
X63000000Y-112000000D03*
D15*
%TO.P,C3,1*%
%TO.N,Net-(C3-Pad1)*%
X61000000Y-112000000D03*
%TD*%
D17*
%TO.P,H1,1*%
%TO.N,GND*%
X59000000Y-78000000D03*
D18*
X62225000Y-78000000D03*
X61280419Y-80280419D03*
X59000000Y-81225000D03*
X56719581Y-80280419D03*
X55775000Y-78000000D03*
X56719581Y-75719581D03*
X59000000Y-74775000D03*
X61280419Y-75719581D03*
%TD*%
%TO.P,H2,1*%
%TO.N,GND*%
X61280419Y-122719581D03*
X59000000Y-121775000D03*
X56719581Y-122719581D03*
X55775000Y-125000000D03*
X56719581Y-127280419D03*
X59000000Y-128225000D03*
X61280419Y-127280419D03*
X62225000Y-125000000D03*
D17*
X59000000Y-125000000D03*
%TD*%
%TO.P,H3,1*%
%TO.N,GND*%
X136000000Y-78000000D03*
D18*
X139225000Y-78000000D03*
X138280419Y-80280419D03*
X136000000Y-81225000D03*
X133719581Y-80280419D03*
X132775000Y-78000000D03*
X133719581Y-75719581D03*
X136000000Y-74775000D03*
X138280419Y-75719581D03*
%TD*%
%TO.P,H4,1*%
%TO.N,GND*%
X138280419Y-122719581D03*
X136000000Y-121775000D03*
X133719581Y-122719581D03*
X132775000Y-125000000D03*
X133719581Y-127280419D03*
X136000000Y-128225000D03*
X138280419Y-127280419D03*
X139225000Y-125000000D03*
D17*
X136000000Y-125000000D03*
%TD*%
D12*
%TO.P,J1,1*%
%TO.N,Net-(J1-Pad1)*%
X133000000Y-108000000D03*
D11*
%TO.P,J1,2*%
%TO.N,Net-(J1-Pad2)*%
X133000000Y-104500000D03*
%TD*%
D16*
%TO.P,R1,1*%
%TO.N,+5V*%
X77000000Y-125000000D03*
D19*
%TO.P,R1,2*%
%TO.N,Net-(C1-Pad1)*%
X77000000Y-117380000D03*
%TD*%
%TO.P,R2,2*%
%TO.N,Net-(R2-Pad2)*%
X99380000Y-106000000D03*
D16*
%TO.P,R2,1*%
%TO.N,Net-(Q1-Pad3)*%
X107000000Y-106000000D03*
%TD*%
D19*
%TO.P,R3,2*%
%TO.N,Net-(Q2-Pad3)*%
X106620000Y-102000000D03*
D16*
%TO.P,R3,1*%
%TO.N,Net-(R3-Pad1)*%
X99000000Y-102000000D03*
%TD*%
%TO.P,R4,1*%
%TO.N,Net-(C3-Pad1)*%
X64000000Y-86000000D03*
D19*
%TO.P,R4,2*%
%TO.N,Net-(R4-Pad2)*%
X71620000Y-86000000D03*
%TD*%
%TO.P,R5,2*%
%TO.N,Net-(R5-Pad2)*%
X92380000Y-82000000D03*
D16*
%TO.P,R5,1*%
%TO.N,Net-(Q3-Pad3)*%
X100000000Y-82000000D03*
%TD*%
D19*
%TO.P,R6,2*%
%TO.N,Net-(Q4-Pad3)*%
X106620000Y-111000000D03*
D16*
%TO.P,R6,1*%
%TO.N,Net-(R6-Pad1)*%
X99000000Y-111000000D03*
%TD*%
D20*
%TO.P,RV1,3*%
%TO.N,Net-(RV1-Pad3)*%
X71000000Y-100000000D03*
%TO.P,RV1,2*%
%TO.N,Net-(C3-Pad1)*%
X61000000Y-97500000D03*
%TO.P,RV1,1*%
X71000000Y-95000000D03*
%TD*%
D15*
%TO.P,U1,1*%
%TO.N,Net-(C1-Pad1)*%
X85000000Y-97000000D03*
D19*
%TO.P,U1,9*%
%TO.N,Net-(R6-Pad1)*%
X92620000Y-114780000D03*
%TO.P,U1,2*%
%TO.N,Net-(RV1-Pad3)*%
X85000000Y-99540000D03*
%TO.P,U1,10*%
%TO.N,Net-(R2-Pad2)*%
X92620000Y-112240000D03*
%TO.P,U1,3*%
%TO.N,Net-(R4-Pad2)*%
X85000000Y-102080000D03*
%TO.P,U1,11*%
%TO.N,Net-(R2-Pad2)*%
X92620000Y-109700000D03*
%TO.P,U1,4*%
%TO.N,Net-(C3-Pad2)*%
X85000000Y-104620000D03*
%TO.P,U1,12*%
%TO.N,Net-(R3-Pad1)*%
X92620000Y-107160000D03*
%TO.P,U1,5*%
%TO.N,Net-(RV1-Pad3)*%
X85000000Y-107160000D03*
%TO.P,U1,13*%
%TO.N,N/C*%
X92620000Y-104620000D03*
%TO.P,U1,6*%
%TO.N,Net-(R6-Pad1)*%
X85000000Y-109700000D03*
%TO.P,U1,14*%
%TO.N,Net-(R3-Pad1)*%
X92620000Y-102080000D03*
%TO.P,U1,7*%
%TO.N,Net-(C3-Pad2)*%
X85000000Y-112240000D03*
%TO.P,U1,15*%
%TO.N,Net-(R5-Pad2)*%
X92620000Y-99540000D03*
%TO.P,U1,8*%
%TO.N,GND*%
X85000000Y-114780000D03*
%TO.P,U1,16*%
%TO.N,N/C*%
X92620000Y-97000000D03*
%TD*%
D21*
%TO.P,Q1,1*%
%TO.N,Net-(J1-Pad2)*%
X123000000Y-116000000D03*
D22*
%TO.P,Q1,2*%
%TO.N,+5V*%
X120460000Y-116000000D03*
%TO.P,Q1,3*%
%TO.N,Net-(Q1-Pad3)*%
X117920000Y-116000000D03*
%TD*%
%TO.P,Q2,3*%
%TO.N,Net-(Q2-Pad3)*%
X105920000Y-116000000D03*
%TO.P,Q2,2*%
%TO.N,+5V*%
X108460000Y-116000000D03*
D21*
%TO.P,Q2,1*%
%TO.N,Net-(J1-Pad1)*%
X111000000Y-116000000D03*
%TD*%
%TO.P,Q3,1*%
%TO.N,Net-(J1-Pad2)*%
X118000000Y-96000000D03*
D22*
%TO.P,Q3,2*%
%TO.N,GND*%
X120540000Y-96000000D03*
%TO.P,Q3,3*%
%TO.N,Net-(Q3-Pad3)*%
X123080000Y-96000000D03*
%TD*%
%TO.P,Q4,3*%
%TO.N,Net-(Q4-Pad3)*%
X112080000Y-96000000D03*
%TO.P,Q4,2*%
%TO.N,GND*%
X109540000Y-96000000D03*
D21*
%TO.P,Q4,1*%
%TO.N,Net-(J1-Pad1)*%
X107000000Y-96000000D03*
%TD*%
D23*
%TO.N,Net-(C1-Pad1)*%
X77000000Y-114000000D03*
X88000000Y-93000000D03*
%TO.N,Net-(RV1-Pad3)*%
X75000000Y-100000000D03*
X88000000Y-91000000D03*
%TD*%
D24*
%TO.N,Net-(C1-Pad1)*%
X77000000Y-114000000D02*
X77000000Y-93000000D01*
X77000000Y-93000000D02*
X88000000Y-93000000D01*
D25*
%TO.N,Net-(Q1-Pad3)*%
X107000000Y-106000000D02*
X118000000Y-106000000D01*
X118000000Y-115540000D02*
X118460000Y-116000000D01*
X118000000Y-115920000D02*
X117920000Y-116000000D01*
X118000000Y-106000000D02*
X118000000Y-115920000D01*
%TO.N,Net-(Q4-Pad3)*%
X106620000Y-111000000D02*
X105000000Y-111000000D01*
X105000000Y-111000000D02*
X105000000Y-98000000D01*
X105000000Y-98000000D02*
X112000000Y-98000000D01*
X112000000Y-96080000D02*
X112080000Y-96000000D01*
X112000000Y-98000000D02*
X112000000Y-96080000D01*
%TO.N,Net-(RV1-Pad3)*%
X75000000Y-100000000D02*
X75000000Y-91000000D01*
X75000000Y-91000000D02*
X88000000Y-91000000D01*
%TD*%
M02*
