M48
; DRILL file {KiCad (5.1.6)-1} date 09/27/21 14:33:33
; FORMAT={3:3/ absolute / metric / suppress leading zeros}
; #@! TF.CreationDate,2021-09-27T14:33:33+03:00
; #@! TF.GenerationSoftware,Kicad,Pcbnew,(5.1.6)-1
FMAT,2
METRIC,TZ
T1C0.400
T2C0.600
T3C0.800
T4C1.000
T5C1.100
T6C1.200
T7C1.300
T8C4.300
%
G90
G05
T1
X75000Y-100000
X77000Y-114000
X88000Y-91000
X88000Y-93000
T2
X55775Y-125000
X56720Y-122720
X56720Y-127280
X59000Y-121775
X59000Y-128225
X61280Y-122720
X61280Y-127280
X62225Y-125000
X132775Y-125000
X133720Y-122720
X133720Y-127280
X136000Y-121775
X136000Y-128225
X138280Y-122720
X138280Y-127280
X139225Y-125000
X132775Y-78000
X133720Y-75720
X133720Y-80280
X136000Y-74775
X136000Y-81225
X138280Y-75720
X138280Y-80280
X139225Y-78000
X55775Y-78000
X56720Y-75720
X56720Y-80280
X59000Y-74775
X59000Y-81225
X61280Y-75720
X61280Y-80280
X62225Y-78000
T3
X99000Y-111000
X106620Y-111000
X99000Y-102000
X106620Y-102000
X92380Y-82000
X100000Y-82000
X85000Y-97000
X85000Y-99540
X85000Y-102080
X85000Y-104620
X85000Y-107160
X85000Y-109700
X85000Y-112240
X85000Y-114780
X92620Y-97000
X92620Y-99540
X92620Y-102080
X92620Y-104620
X92620Y-107160
X92620Y-109700
X92620Y-112240
X92620Y-114780
X64000Y-86000
X71620Y-86000
X61000Y-112000
X63000Y-112000
X99380Y-106000
X107000Y-106000
X85000Y-125000
X87000Y-125000
X77000Y-117380
X77000Y-125000
T4
X118000Y-96000
X120540Y-96000
X123080Y-96000
X117920Y-116000
X120460Y-116000
X123000Y-116000
X107000Y-96000
X109540Y-96000
X112080Y-96000
X85000Y-88000
X100000Y-88000
X105920Y-116000
X108460Y-116000
X111000Y-116000
T5
X116000Y-123000
X116000Y-127500
X122500Y-123000
X122500Y-127500
T6
X96500Y-125000
X100000Y-125000
X133000Y-104500
X133000Y-108000
T7
X61000Y-97500
X71000Y-95000
X71000Y-100000
T8
X136000Y-125000
X59000Y-78000
X59000Y-125000
X136000Y-78000
T0
M30
