%TF.GenerationSoftware,KiCad,Pcbnew,(5.1.6)-1*%
%TF.CreationDate,2021-09-27T14:34:03+03:00*%
%TF.ProjectId,emitter,656d6974-7465-4722-9e6b-696361645f70,rev?*%
%TF.SameCoordinates,Original*%
%TF.FileFunction,Soldermask,Top*%
%TF.FilePolarity,Negative*%
%FSLAX46Y46*%
G04 Gerber Fmt 4.6, Leading zero omitted, Abs format (unit mm)*
G04 Created by KiCad (PCBNEW (5.1.6)-1) date 2021-09-27 14:34:03*
%MOMM*%
%LPD*%
G01*
G04 APERTURE LIST*
%ADD10C,2.100000*%
%ADD11C,2.500000*%
%ADD12R,2.500000X2.500000*%
%ADD13R,2.100000X2.100000*%
%ADD14O,2.100000X2.100000*%
%ADD15R,1.700000X1.700000*%
%ADD16C,1.700000*%
%ADD17C,8.700000*%
%ADD18C,1.000000*%
%ADD19O,1.700000X1.700000*%
%ADD20C,2.440000*%
%ADD21R,1.900000X1.900000*%
%ADD22O,1.900000X1.900000*%
G04 APERTURE END LIST*
D10*
%TO.C,SW1*%
X122500000Y-123000000D03*
X122500000Y-127500000D03*
X116000000Y-123000000D03*
X116000000Y-127500000D03*
%TD*%
D11*
%TO.C,J2*%
X96500000Y-125000000D03*
D12*
X100000000Y-125000000D03*
%TD*%
D13*
%TO.C,C1*%
X85000000Y-88000000D03*
D14*
X100000000Y-88000000D03*
%TD*%
D15*
%TO.C,C2*%
X85000000Y-125000000D03*
D16*
X87000000Y-125000000D03*
%TD*%
%TO.C,C3*%
X63000000Y-112000000D03*
D15*
X61000000Y-112000000D03*
%TD*%
D17*
%TO.C,H1*%
X59000000Y-78000000D03*
D18*
X62225000Y-78000000D03*
X61280419Y-80280419D03*
X59000000Y-81225000D03*
X56719581Y-80280419D03*
X55775000Y-78000000D03*
X56719581Y-75719581D03*
X59000000Y-74775000D03*
X61280419Y-75719581D03*
%TD*%
%TO.C,H2*%
X61280419Y-122719581D03*
X59000000Y-121775000D03*
X56719581Y-122719581D03*
X55775000Y-125000000D03*
X56719581Y-127280419D03*
X59000000Y-128225000D03*
X61280419Y-127280419D03*
X62225000Y-125000000D03*
D17*
X59000000Y-125000000D03*
%TD*%
%TO.C,H3*%
X136000000Y-78000000D03*
D18*
X139225000Y-78000000D03*
X138280419Y-80280419D03*
X136000000Y-81225000D03*
X133719581Y-80280419D03*
X132775000Y-78000000D03*
X133719581Y-75719581D03*
X136000000Y-74775000D03*
X138280419Y-75719581D03*
%TD*%
%TO.C,H4*%
X138280419Y-122719581D03*
X136000000Y-121775000D03*
X133719581Y-122719581D03*
X132775000Y-125000000D03*
X133719581Y-127280419D03*
X136000000Y-128225000D03*
X138280419Y-127280419D03*
X139225000Y-125000000D03*
D17*
X136000000Y-125000000D03*
%TD*%
D12*
%TO.C,J1*%
X133000000Y-108000000D03*
D11*
X133000000Y-104500000D03*
%TD*%
D16*
%TO.C,R1*%
X77000000Y-125000000D03*
D19*
X77000000Y-117380000D03*
%TD*%
%TO.C,R2*%
X99380000Y-106000000D03*
D16*
X107000000Y-106000000D03*
%TD*%
D19*
%TO.C,R3*%
X106620000Y-102000000D03*
D16*
X99000000Y-102000000D03*
%TD*%
%TO.C,R4*%
X64000000Y-86000000D03*
D19*
X71620000Y-86000000D03*
%TD*%
%TO.C,R5*%
X92380000Y-82000000D03*
D16*
X100000000Y-82000000D03*
%TD*%
D19*
%TO.C,R6*%
X106620000Y-111000000D03*
D16*
X99000000Y-111000000D03*
%TD*%
D20*
%TO.C,RV1*%
X71000000Y-100000000D03*
X61000000Y-97500000D03*
X71000000Y-95000000D03*
%TD*%
D15*
%TO.C,U1*%
X85000000Y-97000000D03*
D19*
X92620000Y-114780000D03*
X85000000Y-99540000D03*
X92620000Y-112240000D03*
X85000000Y-102080000D03*
X92620000Y-109700000D03*
X85000000Y-104620000D03*
X92620000Y-107160000D03*
X85000000Y-107160000D03*
X92620000Y-104620000D03*
X85000000Y-109700000D03*
X92620000Y-102080000D03*
X85000000Y-112240000D03*
X92620000Y-99540000D03*
X85000000Y-114780000D03*
X92620000Y-97000000D03*
%TD*%
D21*
%TO.C,Q1*%
X123000000Y-116000000D03*
D22*
X120460000Y-116000000D03*
X117920000Y-116000000D03*
%TD*%
%TO.C,Q2*%
X105920000Y-116000000D03*
X108460000Y-116000000D03*
D21*
X111000000Y-116000000D03*
%TD*%
%TO.C,Q3*%
X118000000Y-96000000D03*
D22*
X120540000Y-96000000D03*
X123080000Y-96000000D03*
%TD*%
%TO.C,Q4*%
X112080000Y-96000000D03*
X109540000Y-96000000D03*
D21*
X107000000Y-96000000D03*
%TD*%
M02*
