%TF.GenerationSoftware,KiCad,Pcbnew,(5.1.6)-1*%
%TF.CreationDate,2021-09-27T14:34:03+03:00*%
%TF.ProjectId,emitter,656d6974-7465-4722-9e6b-696361645f70,rev?*%
%TF.SameCoordinates,Original*%
%TF.FileFunction,Copper,L2,Bot*%
%TF.FilePolarity,Positive*%
%FSLAX46Y46*%
G04 Gerber Fmt 4.6, Leading zero omitted, Abs format (unit mm)*
G04 Created by KiCad (PCBNEW (5.1.6)-1) date 2021-09-27 14:34:03*
%MOMM*%
%LPD*%
G01*
G04 APERTURE LIST*
%TA.AperFunction,ComponentPad*%
%ADD10C,2.000000*%
%TD*%
%TA.AperFunction,ComponentPad*%
%ADD11C,2.400000*%
%TD*%
%TA.AperFunction,ComponentPad*%
%ADD12R,2.400000X2.400000*%
%TD*%
%TA.AperFunction,ComponentPad*%
%ADD13R,2.000000X2.000000*%
%TD*%
%TA.AperFunction,ComponentPad*%
%ADD14O,2.000000X2.000000*%
%TD*%
%TA.AperFunction,ComponentPad*%
%ADD15R,1.600000X1.600000*%
%TD*%
%TA.AperFunction,ComponentPad*%
%ADD16C,1.600000*%
%TD*%
%TA.AperFunction,ComponentPad*%
%ADD17C,8.600000*%
%TD*%
%TA.AperFunction,ComponentPad*%
%ADD18C,0.900000*%
%TD*%
%TA.AperFunction,ComponentPad*%
%ADD19O,1.600000X1.600000*%
%TD*%
%TA.AperFunction,ComponentPad*%
%ADD20C,2.340000*%
%TD*%
%TA.AperFunction,ComponentPad*%
%ADD21R,1.800000X1.800000*%
%TD*%
%TA.AperFunction,ComponentPad*%
%ADD22O,1.800000X1.800000*%
%TD*%
%TA.AperFunction,ViaPad*%
%ADD23C,0.800000*%
%TD*%
%TA.AperFunction,Conductor*%
%ADD24C,0.750000*%
%TD*%
%TA.AperFunction,Conductor*%
%ADD25C,0.500000*%
%TD*%
%TA.AperFunction,Conductor*%
%ADD26C,0.254000*%
%TD*%
G04 APERTURE END LIST*
D10*
%TO.P,SW1,1*%
%TO.N,+5V*%
X122500000Y-123000000D03*
%TO.P,SW1,2*%
%TO.N,Net-(J2-Pad1)*%
X122500000Y-127500000D03*
%TO.P,SW1,1*%
%TO.N,+5V*%
X116000000Y-123000000D03*
%TO.P,SW1,2*%
%TO.N,Net-(J2-Pad1)*%
X116000000Y-127500000D03*
%TD*%
D11*
%TO.P,J2,2*%
%TO.N,GND*%
X96500000Y-125000000D03*
D12*
%TO.P,J2,1*%
%TO.N,Net-(J2-Pad1)*%
X100000000Y-125000000D03*
%TD*%
D13*
%TO.P,C1,1*%
%TO.N,Net-(C1-Pad1)*%
X85000000Y-88000000D03*
D14*
%TO.P,C1,2*%
%TO.N,GND*%
X100000000Y-88000000D03*
%TD*%
D15*
%TO.P,C2,1*%
%TO.N,+5V*%
X85000000Y-125000000D03*
D16*
%TO.P,C2,2*%
%TO.N,GND*%
X87000000Y-125000000D03*
%TD*%
%TO.P,C3,2*%
%TO.N,Net-(C3-Pad2)*%
X63000000Y-112000000D03*
D15*
%TO.P,C3,1*%
%TO.N,Net-(C3-Pad1)*%
X61000000Y-112000000D03*
%TD*%
D17*
%TO.P,H1,1*%
%TO.N,GND*%
X59000000Y-78000000D03*
D18*
X62225000Y-78000000D03*
X61280419Y-80280419D03*
X59000000Y-81225000D03*
X56719581Y-80280419D03*
X55775000Y-78000000D03*
X56719581Y-75719581D03*
X59000000Y-74775000D03*
X61280419Y-75719581D03*
%TD*%
%TO.P,H2,1*%
%TO.N,GND*%
X61280419Y-122719581D03*
X59000000Y-121775000D03*
X56719581Y-122719581D03*
X55775000Y-125000000D03*
X56719581Y-127280419D03*
X59000000Y-128225000D03*
X61280419Y-127280419D03*
X62225000Y-125000000D03*
D17*
X59000000Y-125000000D03*
%TD*%
%TO.P,H3,1*%
%TO.N,GND*%
X136000000Y-78000000D03*
D18*
X139225000Y-78000000D03*
X138280419Y-80280419D03*
X136000000Y-81225000D03*
X133719581Y-80280419D03*
X132775000Y-78000000D03*
X133719581Y-75719581D03*
X136000000Y-74775000D03*
X138280419Y-75719581D03*
%TD*%
%TO.P,H4,1*%
%TO.N,GND*%
X138280419Y-122719581D03*
X136000000Y-121775000D03*
X133719581Y-122719581D03*
X132775000Y-125000000D03*
X133719581Y-127280419D03*
X136000000Y-128225000D03*
X138280419Y-127280419D03*
X139225000Y-125000000D03*
D17*
X136000000Y-125000000D03*
%TD*%
D12*
%TO.P,J1,1*%
%TO.N,Net-(J1-Pad1)*%
X133000000Y-108000000D03*
D11*
%TO.P,J1,2*%
%TO.N,Net-(J1-Pad2)*%
X133000000Y-104500000D03*
%TD*%
D16*
%TO.P,R1,1*%
%TO.N,+5V*%
X77000000Y-125000000D03*
D19*
%TO.P,R1,2*%
%TO.N,Net-(C1-Pad1)*%
X77000000Y-117380000D03*
%TD*%
%TO.P,R2,2*%
%TO.N,Net-(R2-Pad2)*%
X99380000Y-106000000D03*
D16*
%TO.P,R2,1*%
%TO.N,Net-(Q1-Pad3)*%
X107000000Y-106000000D03*
%TD*%
D19*
%TO.P,R3,2*%
%TO.N,Net-(Q2-Pad3)*%
X106620000Y-102000000D03*
D16*
%TO.P,R3,1*%
%TO.N,Net-(R3-Pad1)*%
X99000000Y-102000000D03*
%TD*%
%TO.P,R4,1*%
%TO.N,Net-(C3-Pad1)*%
X64000000Y-86000000D03*
D19*
%TO.P,R4,2*%
%TO.N,Net-(R4-Pad2)*%
X71620000Y-86000000D03*
%TD*%
%TO.P,R5,2*%
%TO.N,Net-(R5-Pad2)*%
X92380000Y-82000000D03*
D16*
%TO.P,R5,1*%
%TO.N,Net-(Q3-Pad3)*%
X100000000Y-82000000D03*
%TD*%
D19*
%TO.P,R6,2*%
%TO.N,Net-(Q4-Pad3)*%
X106620000Y-111000000D03*
D16*
%TO.P,R6,1*%
%TO.N,Net-(R6-Pad1)*%
X99000000Y-111000000D03*
%TD*%
D20*
%TO.P,RV1,3*%
%TO.N,Net-(RV1-Pad3)*%
X71000000Y-100000000D03*
%TO.P,RV1,2*%
%TO.N,Net-(C3-Pad1)*%
X61000000Y-97500000D03*
%TO.P,RV1,1*%
X71000000Y-95000000D03*
%TD*%
D15*
%TO.P,U1,1*%
%TO.N,Net-(C1-Pad1)*%
X85000000Y-97000000D03*
D19*
%TO.P,U1,9*%
%TO.N,Net-(R6-Pad1)*%
X92620000Y-114780000D03*
%TO.P,U1,2*%
%TO.N,Net-(RV1-Pad3)*%
X85000000Y-99540000D03*
%TO.P,U1,10*%
%TO.N,Net-(R2-Pad2)*%
X92620000Y-112240000D03*
%TO.P,U1,3*%
%TO.N,Net-(R4-Pad2)*%
X85000000Y-102080000D03*
%TO.P,U1,11*%
%TO.N,Net-(R2-Pad2)*%
X92620000Y-109700000D03*
%TO.P,U1,4*%
%TO.N,Net-(C3-Pad2)*%
X85000000Y-104620000D03*
%TO.P,U1,12*%
%TO.N,Net-(R3-Pad1)*%
X92620000Y-107160000D03*
%TO.P,U1,5*%
%TO.N,Net-(RV1-Pad3)*%
X85000000Y-107160000D03*
%TO.P,U1,13*%
%TO.N,N/C*%
X92620000Y-104620000D03*
%TO.P,U1,6*%
%TO.N,Net-(R6-Pad1)*%
X85000000Y-109700000D03*
%TO.P,U1,14*%
%TO.N,Net-(R3-Pad1)*%
X92620000Y-102080000D03*
%TO.P,U1,7*%
%TO.N,Net-(C3-Pad2)*%
X85000000Y-112240000D03*
%TO.P,U1,15*%
%TO.N,Net-(R5-Pad2)*%
X92620000Y-99540000D03*
%TO.P,U1,8*%
%TO.N,GND*%
X85000000Y-114780000D03*
%TO.P,U1,16*%
%TO.N,N/C*%
X92620000Y-97000000D03*
%TD*%
D21*
%TO.P,Q1,1*%
%TO.N,Net-(J1-Pad2)*%
X123000000Y-116000000D03*
D22*
%TO.P,Q1,2*%
%TO.N,+5V*%
X120460000Y-116000000D03*
%TO.P,Q1,3*%
%TO.N,Net-(Q1-Pad3)*%
X117920000Y-116000000D03*
%TD*%
%TO.P,Q2,3*%
%TO.N,Net-(Q2-Pad3)*%
X105920000Y-116000000D03*
%TO.P,Q2,2*%
%TO.N,+5V*%
X108460000Y-116000000D03*
D21*
%TO.P,Q2,1*%
%TO.N,Net-(J1-Pad1)*%
X111000000Y-116000000D03*
%TD*%
%TO.P,Q3,1*%
%TO.N,Net-(J1-Pad2)*%
X118000000Y-96000000D03*
D22*
%TO.P,Q3,2*%
%TO.N,GND*%
X120540000Y-96000000D03*
%TO.P,Q3,3*%
%TO.N,Net-(Q3-Pad3)*%
X123080000Y-96000000D03*
%TD*%
%TO.P,Q4,3*%
%TO.N,Net-(Q4-Pad3)*%
X112080000Y-96000000D03*
%TO.P,Q4,2*%
%TO.N,GND*%
X109540000Y-96000000D03*
D21*
%TO.P,Q4,1*%
%TO.N,Net-(J1-Pad1)*%
X107000000Y-96000000D03*
%TD*%
D23*
%TO.N,Net-(C1-Pad1)*%
X77000000Y-114000000D03*
X88000000Y-93000000D03*
%TO.N,Net-(RV1-Pad3)*%
X75000000Y-100000000D03*
X88000000Y-91000000D03*
%TD*%
D24*
%TO.N,Net-(C1-Pad1)*%
X88000000Y-93000000D02*
X85000000Y-93000000D01*
X85000000Y-97000000D02*
X85000000Y-93000000D01*
X85000000Y-93000000D02*
X85000000Y-88000000D01*
X77000000Y-114000000D02*
X77000000Y-117380000D01*
%TO.N,GND*%
X85000000Y-114780000D02*
X85000000Y-121000000D01*
X85000000Y-121000000D02*
X87000000Y-121000000D01*
X87000000Y-121000000D02*
X87000000Y-125000000D01*
X100000000Y-88000000D02*
X107000000Y-88000000D01*
X87000000Y-125000000D02*
X96500000Y-125000000D01*
X120540000Y-96000000D02*
X120540000Y-88540000D01*
X120000000Y-88000000D02*
X118000000Y-88000000D01*
X120540000Y-88540000D02*
X120000000Y-88000000D01*
X109540000Y-88460000D02*
X110000000Y-88000000D01*
X109540000Y-96000000D02*
X109540000Y-88460000D01*
X107000000Y-88000000D02*
X110000000Y-88000000D01*
X110000000Y-88000000D02*
X118000000Y-88000000D01*
%TO.N,+5V*%
X77000000Y-125000000D02*
X77000000Y-128000000D01*
X77000000Y-128000000D02*
X85000000Y-128000000D01*
X85000000Y-128000000D02*
X85000000Y-125000000D01*
X85000000Y-128000000D02*
X100000000Y-128000000D01*
X100000000Y-128000000D02*
X100000000Y-125000000D01*
X122500000Y-123000000D02*
X122500000Y-120500000D01*
X116000000Y-123000000D02*
X116000000Y-120000000D01*
X116000000Y-120000000D02*
X111000000Y-120000000D01*
X122000000Y-120000000D02*
X122500000Y-120500000D01*
X120460000Y-119540000D02*
X120000000Y-120000000D01*
X116000000Y-120000000D02*
X120000000Y-120000000D01*
X120460000Y-116000000D02*
X120460000Y-119540000D01*
X120000000Y-120000000D02*
X122000000Y-120000000D01*
X108460000Y-116000000D02*
X108460000Y-119460000D01*
X109000000Y-120000000D02*
X111000000Y-120000000D01*
X108460000Y-119460000D02*
X109000000Y-120000000D01*
%TO.N,Net-(C3-Pad2)*%
X84760000Y-112000000D02*
X85000000Y-112240000D01*
D25*
X85000000Y-104620000D02*
X82380000Y-104620000D01*
X82000000Y-105000000D02*
X82000000Y-112000000D01*
X82380000Y-104620000D02*
X82000000Y-105000000D01*
D24*
X63000000Y-112000000D02*
X82000000Y-112000000D01*
X82000000Y-112000000D02*
X84760000Y-112000000D01*
D25*
%TO.N,Net-(C3-Pad1)*%
X61000000Y-97500000D02*
X61000000Y-112000000D01*
X61000000Y-97500000D02*
X61000000Y-86000000D01*
X61000000Y-86000000D02*
X64000000Y-86000000D01*
X71000000Y-95000000D02*
X61000000Y-95000000D01*
%TO.N,Net-(J1-Pad1)*%
X108920000Y-108000000D02*
X108460000Y-107540000D01*
X111000000Y-116000000D02*
X111000000Y-108000000D01*
X133000000Y-108000000D02*
X111000000Y-108000000D01*
X111000000Y-108000000D02*
X108920000Y-108000000D01*
X108460000Y-107540000D02*
X108460000Y-99460000D01*
X108460000Y-99460000D02*
X108000000Y-99000000D01*
X108000000Y-99000000D02*
X107000000Y-99000000D01*
X107000000Y-99000000D02*
X107000000Y-96000000D01*
%TO.N,Net-(J1-Pad2)*%
X121500000Y-104500000D02*
X133000000Y-104500000D01*
X136000000Y-114000000D02*
X136000000Y-105000000D01*
X133500000Y-105000000D02*
X133000000Y-104500000D01*
X136000000Y-105000000D02*
X133500000Y-105000000D01*
X136000000Y-114000000D02*
X123000000Y-114000000D01*
X123000000Y-114000000D02*
X123000000Y-116000000D01*
X118000000Y-96000000D02*
X118000000Y-104000000D01*
X121000000Y-104000000D02*
X121500000Y-104500000D01*
X118000000Y-104000000D02*
X121000000Y-104000000D01*
%TO.N,Net-(Q2-Pad3)*%
X104000000Y-116000000D02*
X104000000Y-102000000D01*
X104000000Y-102000000D02*
X106620000Y-102000000D01*
X104000000Y-116000000D02*
X105920000Y-116000000D01*
%TO.N,Net-(Q3-Pad3)*%
X100000000Y-82000000D02*
X123000000Y-82000000D01*
X123000000Y-95920000D02*
X123080000Y-96000000D01*
X123080000Y-82080000D02*
X123000000Y-82000000D01*
X123080000Y-96000000D02*
X123080000Y-82080000D01*
%TO.N,Net-(R2-Pad2)*%
X92620000Y-112240000D02*
X92620000Y-109700000D01*
X92620000Y-109700000D02*
X95700000Y-109700000D01*
X99380000Y-106020000D02*
X99380000Y-106000000D01*
X95700000Y-109700000D02*
X99380000Y-106020000D01*
%TO.N,Net-(R3-Pad1)*%
X92620000Y-107160000D02*
X94840000Y-107160000D01*
X94840000Y-107160000D02*
X95000000Y-107000000D01*
X95000000Y-107000000D02*
X95000000Y-102000000D01*
X92700000Y-102000000D02*
X92620000Y-102080000D01*
X95000000Y-102000000D02*
X92700000Y-102000000D01*
X95000000Y-102000000D02*
X99000000Y-102000000D01*
%TO.N,Net-(R4-Pad2)*%
X71620000Y-86000000D02*
X81000000Y-86000000D01*
X81000000Y-86000000D02*
X81000000Y-102000000D01*
X84920000Y-102000000D02*
X85000000Y-102080000D01*
X81000000Y-102000000D02*
X84920000Y-102000000D01*
%TO.N,Net-(R5-Pad2)*%
X92380000Y-82000000D02*
X91000000Y-82000000D01*
X91000000Y-97920000D02*
X92620000Y-99540000D01*
X91000000Y-82000000D02*
X91000000Y-97920000D01*
%TO.N,Net-(R6-Pad1)*%
X99000000Y-111000000D02*
X99000000Y-115000000D01*
X92840000Y-115000000D02*
X92620000Y-114780000D01*
X99000000Y-115000000D02*
X92840000Y-115000000D01*
X87540000Y-109700000D02*
X92620000Y-114780000D01*
X85000000Y-109700000D02*
X87540000Y-109700000D01*
%TO.N,Net-(RV1-Pad3)*%
X71000000Y-100000000D02*
X75000000Y-100000000D01*
X88850001Y-98149999D02*
X87460000Y-99540000D01*
X88850001Y-91850001D02*
X88850001Y-98149999D01*
X87460000Y-99540000D02*
X85000000Y-99540000D01*
X88000000Y-91000000D02*
X88850001Y-91850001D01*
X87460000Y-106780000D02*
X87460000Y-99540000D01*
X87080000Y-107160000D02*
X87460000Y-106780000D01*
X85000000Y-107160000D02*
X87080000Y-107160000D01*
D24*
%TO.N,Net-(J2-Pad1)*%
X122500000Y-127500000D02*
X116000000Y-127500000D01*
X116000000Y-127500000D02*
X114500000Y-127500000D01*
X99606493Y-124049990D02*
X99328241Y-124328242D01*
X114500000Y-127500000D02*
X111049990Y-124049990D01*
X111049990Y-124049990D02*
X99606493Y-124049990D01*
%TD*%
D26*
%TO.N,GND*%
G36*
X133289527Y-73847433D02*
G01*
X132785693Y-74434968D01*
X136000000Y-77649275D01*
X136014143Y-77635133D01*
X136364868Y-77985858D01*
X136350725Y-78000000D01*
X139565032Y-81214307D01*
X140152567Y-80710473D01*
X140340000Y-80350546D01*
X140340001Y-122640193D01*
X140152567Y-122289527D01*
X139565032Y-121785693D01*
X136350725Y-125000000D01*
X136364868Y-125014143D01*
X136014143Y-125364868D01*
X136000000Y-125350725D01*
X132785693Y-128565032D01*
X133289527Y-129152567D01*
X133649454Y-129340000D01*
X61359809Y-129340000D01*
X61710473Y-129152567D01*
X62214307Y-128565032D01*
X59000000Y-125350725D01*
X58985858Y-125364868D01*
X58635133Y-125014143D01*
X58649275Y-125000000D01*
X59350725Y-125000000D01*
X62565032Y-128214307D01*
X63152567Y-127710473D01*
X63601564Y-126848265D01*
X63873724Y-125915031D01*
X63958591Y-124946632D01*
X63948971Y-124858665D01*
X75565000Y-124858665D01*
X75565000Y-125141335D01*
X75620147Y-125418574D01*
X75728320Y-125679727D01*
X75885363Y-125914759D01*
X75990000Y-126019396D01*
X75990001Y-127950383D01*
X75985114Y-128000000D01*
X76004615Y-128197994D01*
X76062368Y-128388380D01*
X76156153Y-128563840D01*
X76282367Y-128717633D01*
X76436160Y-128843847D01*
X76611620Y-128937632D01*
X76802006Y-128995385D01*
X76950392Y-129010000D01*
X76950393Y-129010000D01*
X77000000Y-129014886D01*
X77049608Y-129010000D01*
X84950392Y-129010000D01*
X85000000Y-129014886D01*
X85049607Y-129010000D01*
X99950392Y-129010000D01*
X100000000Y-129014886D01*
X100049607Y-129010000D01*
X100049608Y-129010000D01*
X100197994Y-128995385D01*
X100388380Y-128937632D01*
X100563840Y-128843847D01*
X100717633Y-128717633D01*
X100843847Y-128563840D01*
X100937632Y-128388380D01*
X100995385Y-128197994D01*
X101001915Y-128131694D01*
X101010000Y-128049608D01*
X101010000Y-128049607D01*
X101014886Y-128000000D01*
X101010000Y-127950392D01*
X101010000Y-126838072D01*
X101200000Y-126838072D01*
X101324482Y-126825812D01*
X101444180Y-126789502D01*
X101554494Y-126730537D01*
X101651185Y-126651185D01*
X101730537Y-126554494D01*
X101789502Y-126444180D01*
X101825812Y-126324482D01*
X101838072Y-126200000D01*
X101838072Y-125059990D01*
X110631635Y-125059990D01*
X113750744Y-128179100D01*
X113782367Y-128217633D01*
X113936160Y-128343847D01*
X114019474Y-128388379D01*
X114111620Y-128437632D01*
X114302005Y-128495385D01*
X114500000Y-128514886D01*
X114549608Y-128510000D01*
X114708463Y-128510000D01*
X114730013Y-128542252D01*
X114957748Y-128769987D01*
X115225537Y-128948918D01*
X115523088Y-129072168D01*
X115838967Y-129135000D01*
X116161033Y-129135000D01*
X116476912Y-129072168D01*
X116774463Y-128948918D01*
X117042252Y-128769987D01*
X117269987Y-128542252D01*
X117291537Y-128510000D01*
X121208463Y-128510000D01*
X121230013Y-128542252D01*
X121457748Y-128769987D01*
X121725537Y-128948918D01*
X122023088Y-129072168D01*
X122338967Y-129135000D01*
X122661033Y-129135000D01*
X122976912Y-129072168D01*
X123274463Y-128948918D01*
X123542252Y-128769987D01*
X123769987Y-128542252D01*
X123948918Y-128274463D01*
X124072168Y-127976912D01*
X124135000Y-127661033D01*
X124135000Y-127338967D01*
X124072168Y-127023088D01*
X123948918Y-126725537D01*
X123769987Y-126457748D01*
X123542252Y-126230013D01*
X123274463Y-126051082D01*
X122976912Y-125927832D01*
X122661033Y-125865000D01*
X122338967Y-125865000D01*
X122023088Y-125927832D01*
X121725537Y-126051082D01*
X121457748Y-126230013D01*
X121230013Y-126457748D01*
X121208463Y-126490000D01*
X117291537Y-126490000D01*
X117269987Y-126457748D01*
X117042252Y-126230013D01*
X116774463Y-126051082D01*
X116476912Y-125927832D01*
X116161033Y-125865000D01*
X115838967Y-125865000D01*
X115523088Y-125927832D01*
X115225537Y-126051082D01*
X114957748Y-126230013D01*
X114808058Y-126379703D01*
X113481723Y-125053368D01*
X131041409Y-125053368D01*
X131147099Y-126019716D01*
X131439284Y-126946876D01*
X131847433Y-127710473D01*
X132434968Y-128214307D01*
X135649275Y-125000000D01*
X132434968Y-121785693D01*
X131847433Y-122289527D01*
X131398436Y-123151735D01*
X131126276Y-124084969D01*
X131041409Y-125053368D01*
X113481723Y-125053368D01*
X111799251Y-123370896D01*
X111767623Y-123332357D01*
X111613830Y-123206143D01*
X111438370Y-123112358D01*
X111247984Y-123054605D01*
X111099598Y-123039990D01*
X111049990Y-123035104D01*
X111000382Y-123039990D01*
X99656101Y-123039990D01*
X99606493Y-123035104D01*
X99408498Y-123054605D01*
X99313306Y-123083482D01*
X99218113Y-123112358D01*
X99125374Y-123161928D01*
X98800000Y-123161928D01*
X98675518Y-123174188D01*
X98555820Y-123210498D01*
X98445506Y-123269463D01*
X98348815Y-123348815D01*
X98269463Y-123445506D01*
X98210498Y-123555820D01*
X98174188Y-123675518D01*
X98161928Y-123800000D01*
X98161928Y-124216566D01*
X98128356Y-124134931D01*
X98123946Y-124126679D01*
X97853954Y-123996771D01*
X96850725Y-125000000D01*
X97853954Y-126003229D01*
X98123946Y-125873321D01*
X98161928Y-125782278D01*
X98161928Y-126200000D01*
X98174188Y-126324482D01*
X98210498Y-126444180D01*
X98269463Y-126554494D01*
X98348815Y-126651185D01*
X98445506Y-126730537D01*
X98555820Y-126789502D01*
X98675518Y-126825812D01*
X98800000Y-126838072D01*
X98990000Y-126838072D01*
X98990000Y-126990000D01*
X86010000Y-126990000D01*
X86010000Y-126399870D01*
X86044180Y-126389502D01*
X86154494Y-126330537D01*
X86251185Y-126251185D01*
X86320606Y-126166595D01*
X86365713Y-126294944D01*
X86630532Y-126393805D01*
X86909549Y-126439103D01*
X87192042Y-126429097D01*
X87467155Y-126364172D01*
X87491823Y-126353954D01*
X95496771Y-126353954D01*
X95626679Y-126623946D01*
X95960275Y-126763118D01*
X96314613Y-126834536D01*
X96676075Y-126835453D01*
X97030771Y-126765834D01*
X97365069Y-126628356D01*
X97373321Y-126623946D01*
X97503229Y-126353954D01*
X96500000Y-125350725D01*
X95496771Y-126353954D01*
X87491823Y-126353954D01*
X87634287Y-126294944D01*
X87714885Y-126065610D01*
X87000000Y-125350725D01*
X86985858Y-125364868D01*
X86635133Y-125014143D01*
X86649275Y-125000000D01*
X87350725Y-125000000D01*
X88065610Y-125714885D01*
X88294944Y-125634287D01*
X88393805Y-125369468D01*
X88425202Y-125176075D01*
X94664547Y-125176075D01*
X94734166Y-125530771D01*
X94871644Y-125865069D01*
X94876054Y-125873321D01*
X95146046Y-126003229D01*
X96149275Y-125000000D01*
X95146046Y-123996771D01*
X94876054Y-124126679D01*
X94736882Y-124460275D01*
X94665464Y-124814613D01*
X94664547Y-125176075D01*
X88425202Y-125176075D01*
X88439103Y-125090451D01*
X88429097Y-124807958D01*
X88364172Y-124532845D01*
X88294944Y-124365713D01*
X88065610Y-124285115D01*
X87350725Y-125000000D01*
X86649275Y-125000000D01*
X86635133Y-124985858D01*
X86985858Y-124635133D01*
X87000000Y-124649275D01*
X87714885Y-123934390D01*
X87634287Y-123705056D01*
X87476217Y-123646046D01*
X95496771Y-123646046D01*
X96500000Y-124649275D01*
X97503229Y-123646046D01*
X97373321Y-123376054D01*
X97039725Y-123236882D01*
X96685387Y-123165464D01*
X96323925Y-123164547D01*
X95969229Y-123234166D01*
X95634931Y-123371644D01*
X95626679Y-123376054D01*
X95496771Y-123646046D01*
X87476217Y-123646046D01*
X87369468Y-123606195D01*
X87090451Y-123560897D01*
X86807958Y-123570903D01*
X86532845Y-123635828D01*
X86365713Y-123705056D01*
X86320606Y-123833405D01*
X86251185Y-123748815D01*
X86154494Y-123669463D01*
X86044180Y-123610498D01*
X85924482Y-123574188D01*
X85800000Y-123561928D01*
X84200000Y-123561928D01*
X84075518Y-123574188D01*
X83955820Y-123610498D01*
X83845506Y-123669463D01*
X83748815Y-123748815D01*
X83669463Y-123845506D01*
X83610498Y-123955820D01*
X83574188Y-124075518D01*
X83561928Y-124200000D01*
X83561928Y-125800000D01*
X83574188Y-125924482D01*
X83610498Y-126044180D01*
X83669463Y-126154494D01*
X83748815Y-126251185D01*
X83845506Y-126330537D01*
X83955820Y-126389502D01*
X83990001Y-126399871D01*
X83990000Y-126990000D01*
X78010000Y-126990000D01*
X78010000Y-126019396D01*
X78114637Y-125914759D01*
X78271680Y-125679727D01*
X78379853Y-125418574D01*
X78435000Y-125141335D01*
X78435000Y-124858665D01*
X78379853Y-124581426D01*
X78271680Y-124320273D01*
X78114637Y-124085241D01*
X77914759Y-123885363D01*
X77679727Y-123728320D01*
X77418574Y-123620147D01*
X77141335Y-123565000D01*
X76858665Y-123565000D01*
X76581426Y-123620147D01*
X76320273Y-123728320D01*
X76085241Y-123885363D01*
X75885363Y-124085241D01*
X75728320Y-124320273D01*
X75620147Y-124581426D01*
X75565000Y-124858665D01*
X63948971Y-124858665D01*
X63852901Y-123980284D01*
X63560716Y-123053124D01*
X63152567Y-122289527D01*
X62565032Y-121785693D01*
X59350725Y-125000000D01*
X58649275Y-125000000D01*
X55434968Y-121785693D01*
X54847433Y-122289527D01*
X54660000Y-122649454D01*
X54660000Y-121434968D01*
X55785693Y-121434968D01*
X59000000Y-124649275D01*
X62214307Y-121434968D01*
X61710473Y-120847433D01*
X60848265Y-120398436D01*
X59915031Y-120126276D01*
X58946632Y-120041409D01*
X57980284Y-120147099D01*
X57053124Y-120439284D01*
X56289527Y-120847433D01*
X55785693Y-121434968D01*
X54660000Y-121434968D01*
X54660000Y-97322223D01*
X59195000Y-97322223D01*
X59195000Y-97677777D01*
X59264365Y-98026499D01*
X59400429Y-98354988D01*
X59597965Y-98650621D01*
X59849379Y-98902035D01*
X60115000Y-99079518D01*
X60115001Y-110570299D01*
X60075518Y-110574188D01*
X59955820Y-110610498D01*
X59845506Y-110669463D01*
X59748815Y-110748815D01*
X59669463Y-110845506D01*
X59610498Y-110955820D01*
X59574188Y-111075518D01*
X59561928Y-111200000D01*
X59561928Y-112800000D01*
X59574188Y-112924482D01*
X59610498Y-113044180D01*
X59669463Y-113154494D01*
X59748815Y-113251185D01*
X59845506Y-113330537D01*
X59955820Y-113389502D01*
X60075518Y-113425812D01*
X60200000Y-113438072D01*
X61800000Y-113438072D01*
X61924482Y-113425812D01*
X62044180Y-113389502D01*
X62154494Y-113330537D01*
X62251185Y-113251185D01*
X62264790Y-113234607D01*
X62320273Y-113271680D01*
X62581426Y-113379853D01*
X62858665Y-113435000D01*
X63141335Y-113435000D01*
X63418574Y-113379853D01*
X63679727Y-113271680D01*
X63914759Y-113114637D01*
X64019396Y-113010000D01*
X76685485Y-113010000D01*
X76509744Y-113082795D01*
X76340226Y-113196063D01*
X76196063Y-113340226D01*
X76082795Y-113509744D01*
X76004774Y-113698102D01*
X75965000Y-113898061D01*
X75965000Y-114101939D01*
X75990000Y-114227624D01*
X75990001Y-116360603D01*
X75885363Y-116465241D01*
X75728320Y-116700273D01*
X75620147Y-116961426D01*
X75565000Y-117238665D01*
X75565000Y-117521335D01*
X75620147Y-117798574D01*
X75728320Y-118059727D01*
X75885363Y-118294759D01*
X76085241Y-118494637D01*
X76320273Y-118651680D01*
X76581426Y-118759853D01*
X76858665Y-118815000D01*
X77141335Y-118815000D01*
X77418574Y-118759853D01*
X77679727Y-118651680D01*
X77914759Y-118494637D01*
X78114637Y-118294759D01*
X78271680Y-118059727D01*
X78379853Y-117798574D01*
X78435000Y-117521335D01*
X78435000Y-117238665D01*
X78379853Y-116961426D01*
X78271680Y-116700273D01*
X78114637Y-116465241D01*
X78010000Y-116360604D01*
X78010000Y-115246052D01*
X83642789Y-115246052D01*
X83710751Y-115410150D01*
X83858460Y-115649562D01*
X84050037Y-115855557D01*
X84278121Y-116020219D01*
X84533946Y-116137220D01*
X84752000Y-116034667D01*
X84752000Y-115028000D01*
X85248000Y-115028000D01*
X85248000Y-116034667D01*
X85466054Y-116137220D01*
X85721879Y-116020219D01*
X85949963Y-115855557D01*
X86141540Y-115649562D01*
X86289249Y-115410150D01*
X86357211Y-115246052D01*
X86251923Y-115028000D01*
X85248000Y-115028000D01*
X84752000Y-115028000D01*
X83748077Y-115028000D01*
X83642789Y-115246052D01*
X78010000Y-115246052D01*
X78010000Y-114227623D01*
X78035000Y-114101939D01*
X78035000Y-113898061D01*
X77995226Y-113698102D01*
X77917205Y-113509744D01*
X77803937Y-113340226D01*
X77659774Y-113196063D01*
X77490256Y-113082795D01*
X77314515Y-113010000D01*
X83788638Y-113010000D01*
X83885363Y-113154759D01*
X84085241Y-113354637D01*
X84320273Y-113511680D01*
X84330396Y-113515873D01*
X84278121Y-113539781D01*
X84050037Y-113704443D01*
X83858460Y-113910438D01*
X83710751Y-114149850D01*
X83642789Y-114313948D01*
X83748077Y-114532000D01*
X84752000Y-114532000D01*
X84752000Y-114512000D01*
X85248000Y-114512000D01*
X85248000Y-114532000D01*
X86251923Y-114532000D01*
X86357211Y-114313948D01*
X86289249Y-114149850D01*
X86141540Y-113910438D01*
X85949963Y-113704443D01*
X85721879Y-113539781D01*
X85669604Y-113515873D01*
X85679727Y-113511680D01*
X85914759Y-113354637D01*
X86114637Y-113154759D01*
X86271680Y-112919727D01*
X86379853Y-112658574D01*
X86435000Y-112381335D01*
X86435000Y-112098665D01*
X86379853Y-111821426D01*
X86271680Y-111560273D01*
X86114637Y-111325241D01*
X85914759Y-111125363D01*
X85682241Y-110970000D01*
X85914759Y-110814637D01*
X86114637Y-110614759D01*
X86134521Y-110585000D01*
X87173422Y-110585000D01*
X91191983Y-114603561D01*
X91185000Y-114638665D01*
X91185000Y-114921335D01*
X91240147Y-115198574D01*
X91348320Y-115459727D01*
X91505363Y-115694759D01*
X91705241Y-115894637D01*
X91940273Y-116051680D01*
X92201426Y-116159853D01*
X92478665Y-116215000D01*
X92761335Y-116215000D01*
X93038574Y-116159853D01*
X93299727Y-116051680D01*
X93534759Y-115894637D01*
X93544396Y-115885000D01*
X98956524Y-115885000D01*
X99000000Y-115889282D01*
X99173490Y-115872195D01*
X99340313Y-115821589D01*
X99494059Y-115739411D01*
X99628817Y-115628817D01*
X99739411Y-115494059D01*
X99821589Y-115340313D01*
X99872195Y-115173490D01*
X99885000Y-115043477D01*
X99889282Y-115000000D01*
X99885000Y-114956523D01*
X99885000Y-112134521D01*
X99914759Y-112114637D01*
X100114637Y-111914759D01*
X100271680Y-111679727D01*
X100379853Y-111418574D01*
X100435000Y-111141335D01*
X100435000Y-110858665D01*
X100379853Y-110581426D01*
X100271680Y-110320273D01*
X100114637Y-110085241D01*
X99914759Y-109885363D01*
X99679727Y-109728320D01*
X99418574Y-109620147D01*
X99141335Y-109565000D01*
X98858665Y-109565000D01*
X98581426Y-109620147D01*
X98320273Y-109728320D01*
X98085241Y-109885363D01*
X97885363Y-110085241D01*
X97728320Y-110320273D01*
X97620147Y-110581426D01*
X97565000Y-110858665D01*
X97565000Y-111141335D01*
X97620147Y-111418574D01*
X97728320Y-111679727D01*
X97885363Y-111914759D01*
X98085241Y-112114637D01*
X98115000Y-112134521D01*
X98115001Y-114115000D01*
X93897780Y-114115000D01*
X93891680Y-114100273D01*
X93734637Y-113865241D01*
X93534759Y-113665363D01*
X93302241Y-113510000D01*
X93534759Y-113354637D01*
X93734637Y-113154759D01*
X93891680Y-112919727D01*
X93999853Y-112658574D01*
X94055000Y-112381335D01*
X94055000Y-112098665D01*
X93999853Y-111821426D01*
X93891680Y-111560273D01*
X93734637Y-111325241D01*
X93534759Y-111125363D01*
X93505000Y-111105479D01*
X93505000Y-110834521D01*
X93534759Y-110814637D01*
X93734637Y-110614759D01*
X93754521Y-110585000D01*
X95656531Y-110585000D01*
X95700000Y-110589281D01*
X95743469Y-110585000D01*
X95743477Y-110585000D01*
X95873490Y-110572195D01*
X96040313Y-110521589D01*
X96194059Y-110439411D01*
X96328817Y-110328817D01*
X96356534Y-110295044D01*
X99220243Y-107431336D01*
X99238665Y-107435000D01*
X99521335Y-107435000D01*
X99798574Y-107379853D01*
X100059727Y-107271680D01*
X100294759Y-107114637D01*
X100494637Y-106914759D01*
X100651680Y-106679727D01*
X100759853Y-106418574D01*
X100815000Y-106141335D01*
X100815000Y-105858665D01*
X100759853Y-105581426D01*
X100651680Y-105320273D01*
X100494637Y-105085241D01*
X100294759Y-104885363D01*
X100059727Y-104728320D01*
X99798574Y-104620147D01*
X99521335Y-104565000D01*
X99238665Y-104565000D01*
X98961426Y-104620147D01*
X98700273Y-104728320D01*
X98465241Y-104885363D01*
X98265363Y-105085241D01*
X98108320Y-105320273D01*
X98000147Y-105581426D01*
X97945000Y-105858665D01*
X97945000Y-106141335D01*
X97955301Y-106193120D01*
X95333422Y-108815000D01*
X93754521Y-108815000D01*
X93734637Y-108785241D01*
X93534759Y-108585363D01*
X93302241Y-108430000D01*
X93534759Y-108274637D01*
X93734637Y-108074759D01*
X93754521Y-108045000D01*
X94796531Y-108045000D01*
X94840000Y-108049281D01*
X94883469Y-108045000D01*
X94883477Y-108045000D01*
X95013490Y-108032195D01*
X95180313Y-107981589D01*
X95334059Y-107899411D01*
X95468817Y-107788817D01*
X95496534Y-107755044D01*
X95595045Y-107656533D01*
X95628817Y-107628817D01*
X95739411Y-107494059D01*
X95821589Y-107340313D01*
X95872195Y-107173490D01*
X95885000Y-107043477D01*
X95885000Y-107043467D01*
X95889281Y-107000001D01*
X95885000Y-106956535D01*
X95885000Y-102885000D01*
X97865479Y-102885000D01*
X97885363Y-102914759D01*
X98085241Y-103114637D01*
X98320273Y-103271680D01*
X98581426Y-103379853D01*
X98858665Y-103435000D01*
X99141335Y-103435000D01*
X99418574Y-103379853D01*
X99679727Y-103271680D01*
X99914759Y-103114637D01*
X100114637Y-102914759D01*
X100271680Y-102679727D01*
X100379853Y-102418574D01*
X100435000Y-102141335D01*
X100435000Y-102000000D01*
X103110718Y-102000000D01*
X103115001Y-102043487D01*
X103115000Y-115956523D01*
X103110718Y-116000000D01*
X103127805Y-116173490D01*
X103178411Y-116340313D01*
X103260589Y-116494059D01*
X103371183Y-116628817D01*
X103505941Y-116739411D01*
X103659687Y-116821589D01*
X103826510Y-116872195D01*
X104000000Y-116889282D01*
X104043476Y-116885000D01*
X104665210Y-116885000D01*
X104727688Y-116978505D01*
X104941495Y-117192312D01*
X105192905Y-117360299D01*
X105472257Y-117476011D01*
X105768816Y-117535000D01*
X106071184Y-117535000D01*
X106367743Y-117476011D01*
X106647095Y-117360299D01*
X106898505Y-117192312D01*
X107112312Y-116978505D01*
X107190000Y-116862237D01*
X107267688Y-116978505D01*
X107450000Y-117160817D01*
X107450001Y-119410382D01*
X107445114Y-119460000D01*
X107464615Y-119657994D01*
X107522368Y-119848379D01*
X107569288Y-119936160D01*
X107616154Y-120023840D01*
X107742368Y-120177633D01*
X107780902Y-120209257D01*
X108250735Y-120679089D01*
X108282367Y-120717633D01*
X108436160Y-120843847D01*
X108611620Y-120937632D01*
X108802006Y-120995385D01*
X108950392Y-121010000D01*
X108950394Y-121010000D01*
X108999999Y-121014886D01*
X109049604Y-121010000D01*
X114990001Y-121010000D01*
X114990000Y-121708463D01*
X114957748Y-121730013D01*
X114730013Y-121957748D01*
X114551082Y-122225537D01*
X114427832Y-122523088D01*
X114365000Y-122838967D01*
X114365000Y-123161033D01*
X114427832Y-123476912D01*
X114551082Y-123774463D01*
X114730013Y-124042252D01*
X114957748Y-124269987D01*
X115225537Y-124448918D01*
X115523088Y-124572168D01*
X115838967Y-124635000D01*
X116161033Y-124635000D01*
X116476912Y-124572168D01*
X116774463Y-124448918D01*
X117042252Y-124269987D01*
X117269987Y-124042252D01*
X117448918Y-123774463D01*
X117572168Y-123476912D01*
X117635000Y-123161033D01*
X117635000Y-122838967D01*
X117572168Y-122523088D01*
X117448918Y-122225537D01*
X117269987Y-121957748D01*
X117042252Y-121730013D01*
X117010000Y-121708463D01*
X117010000Y-121010000D01*
X119950392Y-121010000D01*
X120000000Y-121014886D01*
X120049608Y-121010000D01*
X121490001Y-121010000D01*
X121490001Y-121708463D01*
X121457748Y-121730013D01*
X121230013Y-121957748D01*
X121051082Y-122225537D01*
X120927832Y-122523088D01*
X120865000Y-122838967D01*
X120865000Y-123161033D01*
X120927832Y-123476912D01*
X121051082Y-123774463D01*
X121230013Y-124042252D01*
X121457748Y-124269987D01*
X121725537Y-124448918D01*
X122023088Y-124572168D01*
X122338967Y-124635000D01*
X122661033Y-124635000D01*
X122976912Y-124572168D01*
X123274463Y-124448918D01*
X123542252Y-124269987D01*
X123769987Y-124042252D01*
X123948918Y-123774463D01*
X124072168Y-123476912D01*
X124135000Y-123161033D01*
X124135000Y-122838967D01*
X124072168Y-122523088D01*
X123948918Y-122225537D01*
X123769987Y-121957748D01*
X123542252Y-121730013D01*
X123510000Y-121708463D01*
X123510000Y-121434968D01*
X132785693Y-121434968D01*
X136000000Y-124649275D01*
X139214307Y-121434968D01*
X138710473Y-120847433D01*
X137848265Y-120398436D01*
X136915031Y-120126276D01*
X135946632Y-120041409D01*
X134980284Y-120147099D01*
X134053124Y-120439284D01*
X133289527Y-120847433D01*
X132785693Y-121434968D01*
X123510000Y-121434968D01*
X123510000Y-120549608D01*
X123514886Y-120500000D01*
X123495385Y-120302005D01*
X123437632Y-120111620D01*
X123343847Y-119936160D01*
X123217633Y-119782367D01*
X123179094Y-119750739D01*
X122749261Y-119320906D01*
X122717633Y-119282367D01*
X122563840Y-119156153D01*
X122388380Y-119062368D01*
X122197994Y-119004615D01*
X122049608Y-118990000D01*
X122000000Y-118985114D01*
X121950392Y-118990000D01*
X121470000Y-118990000D01*
X121470000Y-117160817D01*
X121504944Y-117125873D01*
X121510498Y-117144180D01*
X121569463Y-117254494D01*
X121648815Y-117351185D01*
X121745506Y-117430537D01*
X121855820Y-117489502D01*
X121975518Y-117525812D01*
X122100000Y-117538072D01*
X123900000Y-117538072D01*
X124024482Y-117525812D01*
X124144180Y-117489502D01*
X124254494Y-117430537D01*
X124351185Y-117351185D01*
X124430537Y-117254494D01*
X124489502Y-117144180D01*
X124525812Y-117024482D01*
X124538072Y-116900000D01*
X124538072Y-115100000D01*
X124525812Y-114975518D01*
X124498354Y-114885000D01*
X135956523Y-114885000D01*
X136000000Y-114889282D01*
X136043476Y-114885000D01*
X136043477Y-114885000D01*
X136173490Y-114872195D01*
X136340313Y-114821589D01*
X136494059Y-114739411D01*
X136628817Y-114628817D01*
X136739411Y-114494059D01*
X136821589Y-114340313D01*
X136872195Y-114173490D01*
X136889282Y-114000000D01*
X136885000Y-113956523D01*
X136885000Y-105043477D01*
X136889282Y-105000000D01*
X136872195Y-104826510D01*
X136821589Y-104659687D01*
X136739411Y-104505941D01*
X136628817Y-104371183D01*
X136494059Y-104260589D01*
X136340313Y-104178411D01*
X136173490Y-104127805D01*
X136043477Y-104115000D01*
X136000000Y-104110718D01*
X135956524Y-104115000D01*
X134794369Y-104115000D01*
X134764482Y-103964750D01*
X134626156Y-103630801D01*
X134425338Y-103330256D01*
X134169744Y-103074662D01*
X133869199Y-102873844D01*
X133535250Y-102735518D01*
X133180732Y-102665000D01*
X132819268Y-102665000D01*
X132464750Y-102735518D01*
X132130801Y-102873844D01*
X131830256Y-103074662D01*
X131574662Y-103330256D01*
X131384402Y-103615000D01*
X121866578Y-103615000D01*
X121656534Y-103404956D01*
X121628817Y-103371183D01*
X121494059Y-103260589D01*
X121340313Y-103178411D01*
X121173490Y-103127805D01*
X121043477Y-103115000D01*
X121043469Y-103115000D01*
X121000000Y-103110719D01*
X120956531Y-103115000D01*
X118885000Y-103115000D01*
X118885000Y-97538072D01*
X118900000Y-97538072D01*
X119024482Y-97525812D01*
X119144180Y-97489502D01*
X119254494Y-97430537D01*
X119351185Y-97351185D01*
X119430537Y-97254494D01*
X119489502Y-97144180D01*
X119496887Y-97119836D01*
X119537042Y-97162037D01*
X119783016Y-97335376D01*
X120058080Y-97457397D01*
X120292000Y-97356093D01*
X120292000Y-96248000D01*
X120272000Y-96248000D01*
X120272000Y-95752000D01*
X120292000Y-95752000D01*
X120292000Y-94643907D01*
X120058080Y-94542603D01*
X119783016Y-94664624D01*
X119537042Y-94837963D01*
X119496887Y-94880164D01*
X119489502Y-94855820D01*
X119430537Y-94745506D01*
X119351185Y-94648815D01*
X119254494Y-94569463D01*
X119144180Y-94510498D01*
X119024482Y-94474188D01*
X118900000Y-94461928D01*
X117100000Y-94461928D01*
X116975518Y-94474188D01*
X116855820Y-94510498D01*
X116745506Y-94569463D01*
X116648815Y-94648815D01*
X116569463Y-94745506D01*
X116510498Y-94855820D01*
X116474188Y-94975518D01*
X116461928Y-95100000D01*
X116461928Y-96900000D01*
X116474188Y-97024482D01*
X116510498Y-97144180D01*
X116569463Y-97254494D01*
X116648815Y-97351185D01*
X116745506Y-97430537D01*
X116855820Y-97489502D01*
X116975518Y-97525812D01*
X117100000Y-97538072D01*
X117115000Y-97538072D01*
X117115001Y-103956513D01*
X117110718Y-104000000D01*
X117127805Y-104173490D01*
X117178411Y-104340313D01*
X117260589Y-104494059D01*
X117371183Y-104628817D01*
X117505941Y-104739411D01*
X117659687Y-104821589D01*
X117826510Y-104872195D01*
X117956523Y-104885000D01*
X117956524Y-104885000D01*
X118000000Y-104889282D01*
X118043477Y-104885000D01*
X120633422Y-104885000D01*
X120843466Y-105095044D01*
X120871183Y-105128817D01*
X121005941Y-105239411D01*
X121159687Y-105321589D01*
X121326510Y-105372195D01*
X121456523Y-105385000D01*
X121456531Y-105385000D01*
X121500000Y-105389281D01*
X121543469Y-105385000D01*
X131384402Y-105385000D01*
X131574662Y-105669744D01*
X131830256Y-105925338D01*
X132130801Y-106126156D01*
X132217162Y-106161928D01*
X131800000Y-106161928D01*
X131675518Y-106174188D01*
X131555820Y-106210498D01*
X131445506Y-106269463D01*
X131348815Y-106348815D01*
X131269463Y-106445506D01*
X131210498Y-106555820D01*
X131174188Y-106675518D01*
X131161928Y-106800000D01*
X131161928Y-107115000D01*
X111043477Y-107115000D01*
X111000000Y-107110718D01*
X110956524Y-107115000D01*
X109345000Y-107115000D01*
X109345000Y-99503465D01*
X109349281Y-99459999D01*
X109345000Y-99416533D01*
X109345000Y-99416523D01*
X109332195Y-99286510D01*
X109281589Y-99119687D01*
X109199411Y-98965941D01*
X109088817Y-98831183D01*
X109055044Y-98803466D01*
X108656534Y-98404956D01*
X108628817Y-98371183D01*
X108494059Y-98260589D01*
X108340313Y-98178411D01*
X108173490Y-98127805D01*
X108043477Y-98115000D01*
X108043469Y-98115000D01*
X108000000Y-98110719D01*
X107956531Y-98115000D01*
X107885000Y-98115000D01*
X107885000Y-97538072D01*
X107900000Y-97538072D01*
X108024482Y-97525812D01*
X108144180Y-97489502D01*
X108254494Y-97430537D01*
X108351185Y-97351185D01*
X108430537Y-97254494D01*
X108489502Y-97144180D01*
X108496887Y-97119836D01*
X108537042Y-97162037D01*
X108783016Y-97335376D01*
X109058080Y-97457397D01*
X109292000Y-97356093D01*
X109292000Y-96248000D01*
X109272000Y-96248000D01*
X109272000Y-95752000D01*
X109292000Y-95752000D01*
X109292000Y-94643907D01*
X109788000Y-94643907D01*
X109788000Y-95752000D01*
X109808000Y-95752000D01*
X109808000Y-96248000D01*
X109788000Y-96248000D01*
X109788000Y-97356093D01*
X110021920Y-97457397D01*
X110296984Y-97335376D01*
X110542958Y-97162037D01*
X110750389Y-96944041D01*
X110805973Y-96856209D01*
X110887688Y-96978505D01*
X111101495Y-97192312D01*
X111352905Y-97360299D01*
X111632257Y-97476011D01*
X111928816Y-97535000D01*
X112231184Y-97535000D01*
X112527743Y-97476011D01*
X112807095Y-97360299D01*
X113058505Y-97192312D01*
X113272312Y-96978505D01*
X113440299Y-96727095D01*
X113556011Y-96447743D01*
X113615000Y-96151184D01*
X113615000Y-95848816D01*
X113556011Y-95552257D01*
X113440299Y-95272905D01*
X113272312Y-95021495D01*
X113058505Y-94807688D01*
X112807095Y-94639701D01*
X112527743Y-94523989D01*
X112231184Y-94465000D01*
X111928816Y-94465000D01*
X111632257Y-94523989D01*
X111352905Y-94639701D01*
X111101495Y-94807688D01*
X110887688Y-95021495D01*
X110805973Y-95143791D01*
X110750389Y-95055959D01*
X110542958Y-94837963D01*
X110296984Y-94664624D01*
X110021920Y-94542603D01*
X109788000Y-94643907D01*
X109292000Y-94643907D01*
X109058080Y-94542603D01*
X108783016Y-94664624D01*
X108537042Y-94837963D01*
X108496887Y-94880164D01*
X108489502Y-94855820D01*
X108430537Y-94745506D01*
X108351185Y-94648815D01*
X108254494Y-94569463D01*
X108144180Y-94510498D01*
X108024482Y-94474188D01*
X107900000Y-94461928D01*
X106100000Y-94461928D01*
X105975518Y-94474188D01*
X105855820Y-94510498D01*
X105745506Y-94569463D01*
X105648815Y-94648815D01*
X105569463Y-94745506D01*
X105510498Y-94855820D01*
X105474188Y-94975518D01*
X105461928Y-95100000D01*
X105461928Y-96900000D01*
X105474188Y-97024482D01*
X105510498Y-97144180D01*
X105569463Y-97254494D01*
X105648815Y-97351185D01*
X105745506Y-97430537D01*
X105855820Y-97489502D01*
X105975518Y-97525812D01*
X106100000Y-97538072D01*
X106115000Y-97538072D01*
X106115000Y-98956523D01*
X106110718Y-99000000D01*
X106127805Y-99173490D01*
X106178411Y-99340313D01*
X106260589Y-99494059D01*
X106371183Y-99628817D01*
X106505941Y-99739411D01*
X106659687Y-99821589D01*
X106826510Y-99872195D01*
X106908935Y-99880313D01*
X107000000Y-99889282D01*
X107043476Y-99885000D01*
X107575001Y-99885000D01*
X107575001Y-100925605D01*
X107534759Y-100885363D01*
X107299727Y-100728320D01*
X107038574Y-100620147D01*
X106761335Y-100565000D01*
X106478665Y-100565000D01*
X106201426Y-100620147D01*
X105940273Y-100728320D01*
X105705241Y-100885363D01*
X105505363Y-101085241D01*
X105485479Y-101115000D01*
X104043477Y-101115000D01*
X104000000Y-101110718D01*
X103956524Y-101115000D01*
X103956523Y-101115000D01*
X103826510Y-101127805D01*
X103659687Y-101178411D01*
X103505941Y-101260589D01*
X103371183Y-101371183D01*
X103260589Y-101505941D01*
X103178411Y-101659687D01*
X103127805Y-101826510D01*
X103110718Y-102000000D01*
X100435000Y-102000000D01*
X100435000Y-101858665D01*
X100379853Y-101581426D01*
X100271680Y-101320273D01*
X100114637Y-101085241D01*
X99914759Y-100885363D01*
X99679727Y-100728320D01*
X99418574Y-100620147D01*
X99141335Y-100565000D01*
X98858665Y-100565000D01*
X98581426Y-100620147D01*
X98320273Y-100728320D01*
X98085241Y-100885363D01*
X97885363Y-101085241D01*
X97865479Y-101115000D01*
X95043477Y-101115000D01*
X95000000Y-101110718D01*
X94956524Y-101115000D01*
X93684396Y-101115000D01*
X93534759Y-100965363D01*
X93302241Y-100810000D01*
X93534759Y-100654637D01*
X93734637Y-100454759D01*
X93891680Y-100219727D01*
X93999853Y-99958574D01*
X94055000Y-99681335D01*
X94055000Y-99398665D01*
X93999853Y-99121426D01*
X93891680Y-98860273D01*
X93734637Y-98625241D01*
X93534759Y-98425363D01*
X93302241Y-98270000D01*
X93534759Y-98114637D01*
X93734637Y-97914759D01*
X93891680Y-97679727D01*
X93999853Y-97418574D01*
X94055000Y-97141335D01*
X94055000Y-96858665D01*
X93999853Y-96581426D01*
X93891680Y-96320273D01*
X93734637Y-96085241D01*
X93534759Y-95885363D01*
X93299727Y-95728320D01*
X93038574Y-95620147D01*
X92761335Y-95565000D01*
X92478665Y-95565000D01*
X92201426Y-95620147D01*
X91940273Y-95728320D01*
X91885000Y-95765252D01*
X91885000Y-88497758D01*
X98442610Y-88497758D01*
X98546784Y-88749278D01*
X98720884Y-89018389D01*
X98944140Y-89248364D01*
X99207972Y-89430365D01*
X99502241Y-89557398D01*
X99752000Y-89457341D01*
X99752000Y-88248000D01*
X100248000Y-88248000D01*
X100248000Y-89457341D01*
X100497759Y-89557398D01*
X100792028Y-89430365D01*
X101055860Y-89248364D01*
X101279116Y-89018389D01*
X101453216Y-88749278D01*
X101557390Y-88497758D01*
X101455270Y-88248000D01*
X100248000Y-88248000D01*
X99752000Y-88248000D01*
X98544730Y-88248000D01*
X98442610Y-88497758D01*
X91885000Y-88497758D01*
X91885000Y-87502242D01*
X98442610Y-87502242D01*
X98544730Y-87752000D01*
X99752000Y-87752000D01*
X99752000Y-86542659D01*
X100248000Y-86542659D01*
X100248000Y-87752000D01*
X101455270Y-87752000D01*
X101557390Y-87502242D01*
X101453216Y-87250722D01*
X101279116Y-86981611D01*
X101055860Y-86751636D01*
X100792028Y-86569635D01*
X100497759Y-86442602D01*
X100248000Y-86542659D01*
X99752000Y-86542659D01*
X99502241Y-86442602D01*
X99207972Y-86569635D01*
X98944140Y-86751636D01*
X98720884Y-86981611D01*
X98546784Y-87250722D01*
X98442610Y-87502242D01*
X91885000Y-87502242D01*
X91885000Y-83348196D01*
X91961426Y-83379853D01*
X92238665Y-83435000D01*
X92521335Y-83435000D01*
X92798574Y-83379853D01*
X93059727Y-83271680D01*
X93294759Y-83114637D01*
X93494637Y-82914759D01*
X93651680Y-82679727D01*
X93759853Y-82418574D01*
X93815000Y-82141335D01*
X93815000Y-81858665D01*
X98565000Y-81858665D01*
X98565000Y-82141335D01*
X98620147Y-82418574D01*
X98728320Y-82679727D01*
X98885363Y-82914759D01*
X99085241Y-83114637D01*
X99320273Y-83271680D01*
X99581426Y-83379853D01*
X99858665Y-83435000D01*
X100141335Y-83435000D01*
X100418574Y-83379853D01*
X100679727Y-83271680D01*
X100914759Y-83114637D01*
X101114637Y-82914759D01*
X101134521Y-82885000D01*
X122195001Y-82885000D01*
X122195000Y-94745210D01*
X122101495Y-94807688D01*
X121887688Y-95021495D01*
X121805973Y-95143791D01*
X121750389Y-95055959D01*
X121542958Y-94837963D01*
X121296984Y-94664624D01*
X121021920Y-94542603D01*
X120788000Y-94643907D01*
X120788000Y-95752000D01*
X120808000Y-95752000D01*
X120808000Y-96248000D01*
X120788000Y-96248000D01*
X120788000Y-97356093D01*
X121021920Y-97457397D01*
X121296984Y-97335376D01*
X121542958Y-97162037D01*
X121750389Y-96944041D01*
X121805973Y-96856209D01*
X121887688Y-96978505D01*
X122101495Y-97192312D01*
X122352905Y-97360299D01*
X122632257Y-97476011D01*
X122928816Y-97535000D01*
X123231184Y-97535000D01*
X123527743Y-97476011D01*
X123807095Y-97360299D01*
X124058505Y-97192312D01*
X124272312Y-96978505D01*
X124440299Y-96727095D01*
X124556011Y-96447743D01*
X124615000Y-96151184D01*
X124615000Y-95848816D01*
X124556011Y-95552257D01*
X124440299Y-95272905D01*
X124272312Y-95021495D01*
X124058505Y-94807688D01*
X123965000Y-94745210D01*
X123965000Y-82123466D01*
X123969281Y-82079999D01*
X123965000Y-82036533D01*
X123965000Y-82036523D01*
X123952195Y-81906510D01*
X123901589Y-81739687D01*
X123819411Y-81585941D01*
X123802252Y-81565032D01*
X132785693Y-81565032D01*
X133289527Y-82152567D01*
X134151735Y-82601564D01*
X135084969Y-82873724D01*
X136053368Y-82958591D01*
X137019716Y-82852901D01*
X137946876Y-82560716D01*
X138710473Y-82152567D01*
X139214307Y-81565032D01*
X136000000Y-78350725D01*
X132785693Y-81565032D01*
X123802252Y-81565032D01*
X123708817Y-81451183D01*
X123675044Y-81423466D01*
X123656534Y-81404956D01*
X123628817Y-81371183D01*
X123494059Y-81260589D01*
X123340313Y-81178411D01*
X123173490Y-81127805D01*
X123043477Y-81115000D01*
X123043469Y-81115000D01*
X123000000Y-81110719D01*
X122956531Y-81115000D01*
X101134521Y-81115000D01*
X101114637Y-81085241D01*
X100914759Y-80885363D01*
X100679727Y-80728320D01*
X100418574Y-80620147D01*
X100141335Y-80565000D01*
X99858665Y-80565000D01*
X99581426Y-80620147D01*
X99320273Y-80728320D01*
X99085241Y-80885363D01*
X98885363Y-81085241D01*
X98728320Y-81320273D01*
X98620147Y-81581426D01*
X98565000Y-81858665D01*
X93815000Y-81858665D01*
X93759853Y-81581426D01*
X93651680Y-81320273D01*
X93494637Y-81085241D01*
X93294759Y-80885363D01*
X93059727Y-80728320D01*
X92798574Y-80620147D01*
X92521335Y-80565000D01*
X92238665Y-80565000D01*
X91961426Y-80620147D01*
X91700273Y-80728320D01*
X91465241Y-80885363D01*
X91265363Y-81085241D01*
X91245479Y-81115000D01*
X91043476Y-81115000D01*
X91000000Y-81110718D01*
X90956523Y-81115000D01*
X90826510Y-81127805D01*
X90659687Y-81178411D01*
X90505941Y-81260589D01*
X90371183Y-81371183D01*
X90260589Y-81505941D01*
X90178411Y-81659687D01*
X90127805Y-81826510D01*
X90110718Y-82000000D01*
X90115000Y-82043477D01*
X90115001Y-97876521D01*
X90110719Y-97920000D01*
X90127805Y-98093490D01*
X90178412Y-98260313D01*
X90260590Y-98414059D01*
X90343468Y-98515046D01*
X90343471Y-98515049D01*
X90371184Y-98548817D01*
X90404951Y-98576529D01*
X91191983Y-99363561D01*
X91185000Y-99398665D01*
X91185000Y-99681335D01*
X91240147Y-99958574D01*
X91348320Y-100219727D01*
X91505363Y-100454759D01*
X91705241Y-100654637D01*
X91937759Y-100810000D01*
X91705241Y-100965363D01*
X91505363Y-101165241D01*
X91348320Y-101400273D01*
X91240147Y-101661426D01*
X91185000Y-101938665D01*
X91185000Y-102221335D01*
X91240147Y-102498574D01*
X91348320Y-102759727D01*
X91505363Y-102994759D01*
X91705241Y-103194637D01*
X91937759Y-103350000D01*
X91705241Y-103505363D01*
X91505363Y-103705241D01*
X91348320Y-103940273D01*
X91240147Y-104201426D01*
X91185000Y-104478665D01*
X91185000Y-104761335D01*
X91240147Y-105038574D01*
X91348320Y-105299727D01*
X91505363Y-105534759D01*
X91705241Y-105734637D01*
X91937759Y-105890000D01*
X91705241Y-106045363D01*
X91505363Y-106245241D01*
X91348320Y-106480273D01*
X91240147Y-106741426D01*
X91185000Y-107018665D01*
X91185000Y-107301335D01*
X91240147Y-107578574D01*
X91348320Y-107839727D01*
X91505363Y-108074759D01*
X91705241Y-108274637D01*
X91937759Y-108430000D01*
X91705241Y-108585363D01*
X91505363Y-108785241D01*
X91348320Y-109020273D01*
X91240147Y-109281426D01*
X91185000Y-109558665D01*
X91185000Y-109841335D01*
X91240147Y-110118574D01*
X91348320Y-110379727D01*
X91505363Y-110614759D01*
X91705241Y-110814637D01*
X91735001Y-110834522D01*
X91735000Y-111105478D01*
X91705241Y-111125363D01*
X91505363Y-111325241D01*
X91348320Y-111560273D01*
X91240147Y-111821426D01*
X91185870Y-112094291D01*
X88196532Y-109104954D01*
X88168817Y-109071183D01*
X88034059Y-108960589D01*
X87880313Y-108878411D01*
X87713490Y-108827805D01*
X87583477Y-108815000D01*
X87583469Y-108815000D01*
X87540000Y-108810719D01*
X87496531Y-108815000D01*
X86134521Y-108815000D01*
X86114637Y-108785241D01*
X85914759Y-108585363D01*
X85682241Y-108430000D01*
X85914759Y-108274637D01*
X86114637Y-108074759D01*
X86134521Y-108045000D01*
X87036531Y-108045000D01*
X87080000Y-108049281D01*
X87123469Y-108045000D01*
X87123477Y-108045000D01*
X87253490Y-108032195D01*
X87420313Y-107981589D01*
X87574059Y-107899411D01*
X87708817Y-107788817D01*
X87736534Y-107755044D01*
X88055045Y-107436533D01*
X88088817Y-107408817D01*
X88199411Y-107274059D01*
X88281589Y-107120313D01*
X88332195Y-106953490D01*
X88345000Y-106823477D01*
X88345000Y-106823467D01*
X88349281Y-106780001D01*
X88345000Y-106736535D01*
X88345000Y-99906578D01*
X89445050Y-98806529D01*
X89478818Y-98778816D01*
X89589412Y-98644058D01*
X89671590Y-98490312D01*
X89722196Y-98323489D01*
X89735001Y-98193476D01*
X89735001Y-98193466D01*
X89739282Y-98150000D01*
X89735001Y-98106534D01*
X89735001Y-91893470D01*
X89739282Y-91850001D01*
X89735001Y-91806532D01*
X89735001Y-91806524D01*
X89722196Y-91676511D01*
X89671590Y-91509688D01*
X89589412Y-91355942D01*
X89478818Y-91221184D01*
X89445051Y-91193472D01*
X89006535Y-90754957D01*
X88995226Y-90698102D01*
X88917205Y-90509744D01*
X88803937Y-90340226D01*
X88659774Y-90196063D01*
X88490256Y-90082795D01*
X88301898Y-90004774D01*
X88101939Y-89965000D01*
X87898061Y-89965000D01*
X87698102Y-90004774D01*
X87509744Y-90082795D01*
X87340226Y-90196063D01*
X87196063Y-90340226D01*
X87082795Y-90509744D01*
X87004774Y-90698102D01*
X86965000Y-90898061D01*
X86965000Y-91101939D01*
X87004774Y-91301898D01*
X87082795Y-91490256D01*
X87196063Y-91659774D01*
X87340226Y-91803937D01*
X87509744Y-91917205D01*
X87685485Y-91990000D01*
X86010000Y-91990000D01*
X86010000Y-89637087D01*
X86124482Y-89625812D01*
X86244180Y-89589502D01*
X86354494Y-89530537D01*
X86451185Y-89451185D01*
X86530537Y-89354494D01*
X86589502Y-89244180D01*
X86625812Y-89124482D01*
X86638072Y-89000000D01*
X86638072Y-87000000D01*
X86625812Y-86875518D01*
X86589502Y-86755820D01*
X86530537Y-86645506D01*
X86451185Y-86548815D01*
X86354494Y-86469463D01*
X86244180Y-86410498D01*
X86124482Y-86374188D01*
X86000000Y-86361928D01*
X84000000Y-86361928D01*
X83875518Y-86374188D01*
X83755820Y-86410498D01*
X83645506Y-86469463D01*
X83548815Y-86548815D01*
X83469463Y-86645506D01*
X83410498Y-86755820D01*
X83374188Y-86875518D01*
X83361928Y-87000000D01*
X83361928Y-89000000D01*
X83374188Y-89124482D01*
X83410498Y-89244180D01*
X83469463Y-89354494D01*
X83548815Y-89451185D01*
X83645506Y-89530537D01*
X83755820Y-89589502D01*
X83875518Y-89625812D01*
X83990001Y-89637087D01*
X83990000Y-92950392D01*
X83985114Y-93000000D01*
X83990001Y-93049618D01*
X83990000Y-95600130D01*
X83955820Y-95610498D01*
X83845506Y-95669463D01*
X83748815Y-95748815D01*
X83669463Y-95845506D01*
X83610498Y-95955820D01*
X83574188Y-96075518D01*
X83561928Y-96200000D01*
X83561928Y-97800000D01*
X83574188Y-97924482D01*
X83610498Y-98044180D01*
X83669463Y-98154494D01*
X83748815Y-98251185D01*
X83845506Y-98330537D01*
X83955820Y-98389502D01*
X84075518Y-98425812D01*
X84083961Y-98426643D01*
X83885363Y-98625241D01*
X83728320Y-98860273D01*
X83620147Y-99121426D01*
X83565000Y-99398665D01*
X83565000Y-99681335D01*
X83620147Y-99958574D01*
X83728320Y-100219727D01*
X83885363Y-100454759D01*
X84085241Y-100654637D01*
X84317759Y-100810000D01*
X84085241Y-100965363D01*
X83935604Y-101115000D01*
X81885000Y-101115000D01*
X81885000Y-86043477D01*
X81889282Y-86000000D01*
X81872195Y-85826510D01*
X81821589Y-85659687D01*
X81739411Y-85505941D01*
X81628817Y-85371183D01*
X81494059Y-85260589D01*
X81340313Y-85178411D01*
X81173490Y-85127805D01*
X81043477Y-85115000D01*
X81043476Y-85115000D01*
X81000000Y-85110718D01*
X80956523Y-85115000D01*
X72754521Y-85115000D01*
X72734637Y-85085241D01*
X72534759Y-84885363D01*
X72299727Y-84728320D01*
X72038574Y-84620147D01*
X71761335Y-84565000D01*
X71478665Y-84565000D01*
X71201426Y-84620147D01*
X70940273Y-84728320D01*
X70705241Y-84885363D01*
X70505363Y-85085241D01*
X70348320Y-85320273D01*
X70240147Y-85581426D01*
X70185000Y-85858665D01*
X70185000Y-86141335D01*
X70240147Y-86418574D01*
X70348320Y-86679727D01*
X70505363Y-86914759D01*
X70705241Y-87114637D01*
X70940273Y-87271680D01*
X71201426Y-87379853D01*
X71478665Y-87435000D01*
X71761335Y-87435000D01*
X72038574Y-87379853D01*
X72299727Y-87271680D01*
X72534759Y-87114637D01*
X72734637Y-86914759D01*
X72754521Y-86885000D01*
X80115000Y-86885000D01*
X80115001Y-101956513D01*
X80110718Y-102000000D01*
X80127805Y-102173490D01*
X80178411Y-102340313D01*
X80260589Y-102494059D01*
X80371183Y-102628817D01*
X80505941Y-102739411D01*
X80659687Y-102821589D01*
X80826510Y-102872195D01*
X80956523Y-102885000D01*
X80956524Y-102885000D01*
X81000000Y-102889282D01*
X81043477Y-102885000D01*
X83812025Y-102885000D01*
X83885363Y-102994759D01*
X84085241Y-103194637D01*
X84317759Y-103350000D01*
X84085241Y-103505363D01*
X83885363Y-103705241D01*
X83865479Y-103735000D01*
X82423465Y-103735000D01*
X82379999Y-103730719D01*
X82336533Y-103735000D01*
X82336523Y-103735000D01*
X82206510Y-103747805D01*
X82039687Y-103798411D01*
X81885941Y-103880589D01*
X81751183Y-103991183D01*
X81723466Y-104024956D01*
X81404956Y-104343466D01*
X81371183Y-104371183D01*
X81260589Y-104505942D01*
X81178411Y-104659688D01*
X81127805Y-104826511D01*
X81115000Y-104956524D01*
X81115000Y-104956531D01*
X81110719Y-105000000D01*
X81115000Y-105043469D01*
X81115001Y-110990000D01*
X64019396Y-110990000D01*
X63914759Y-110885363D01*
X63679727Y-110728320D01*
X63418574Y-110620147D01*
X63141335Y-110565000D01*
X62858665Y-110565000D01*
X62581426Y-110620147D01*
X62320273Y-110728320D01*
X62264790Y-110765393D01*
X62251185Y-110748815D01*
X62154494Y-110669463D01*
X62044180Y-110610498D01*
X61924482Y-110574188D01*
X61885000Y-110570299D01*
X61885000Y-99822223D01*
X69195000Y-99822223D01*
X69195000Y-100177777D01*
X69264365Y-100526499D01*
X69400429Y-100854988D01*
X69597965Y-101150621D01*
X69849379Y-101402035D01*
X70145012Y-101599571D01*
X70473501Y-101735635D01*
X70822223Y-101805000D01*
X71177777Y-101805000D01*
X71526499Y-101735635D01*
X71854988Y-101599571D01*
X72150621Y-101402035D01*
X72402035Y-101150621D01*
X72579518Y-100885000D01*
X74461546Y-100885000D01*
X74509744Y-100917205D01*
X74698102Y-100995226D01*
X74898061Y-101035000D01*
X75101939Y-101035000D01*
X75301898Y-100995226D01*
X75490256Y-100917205D01*
X75659774Y-100803937D01*
X75803937Y-100659774D01*
X75917205Y-100490256D01*
X75995226Y-100301898D01*
X76035000Y-100101939D01*
X76035000Y-99898061D01*
X75995226Y-99698102D01*
X75917205Y-99509744D01*
X75803937Y-99340226D01*
X75659774Y-99196063D01*
X75490256Y-99082795D01*
X75301898Y-99004774D01*
X75101939Y-98965000D01*
X74898061Y-98965000D01*
X74698102Y-99004774D01*
X74509744Y-99082795D01*
X74461546Y-99115000D01*
X72579518Y-99115000D01*
X72402035Y-98849379D01*
X72150621Y-98597965D01*
X71854988Y-98400429D01*
X71526499Y-98264365D01*
X71177777Y-98195000D01*
X70822223Y-98195000D01*
X70473501Y-98264365D01*
X70145012Y-98400429D01*
X69849379Y-98597965D01*
X69597965Y-98849379D01*
X69400429Y-99145012D01*
X69264365Y-99473501D01*
X69195000Y-99822223D01*
X61885000Y-99822223D01*
X61885000Y-99079518D01*
X62150621Y-98902035D01*
X62402035Y-98650621D01*
X62599571Y-98354988D01*
X62735635Y-98026499D01*
X62805000Y-97677777D01*
X62805000Y-97322223D01*
X62735635Y-96973501D01*
X62599571Y-96645012D01*
X62402035Y-96349379D01*
X62150621Y-96097965D01*
X61885000Y-95920482D01*
X61885000Y-95885000D01*
X69420482Y-95885000D01*
X69597965Y-96150621D01*
X69849379Y-96402035D01*
X70145012Y-96599571D01*
X70473501Y-96735635D01*
X70822223Y-96805000D01*
X71177777Y-96805000D01*
X71526499Y-96735635D01*
X71854988Y-96599571D01*
X72150621Y-96402035D01*
X72402035Y-96150621D01*
X72599571Y-95854988D01*
X72735635Y-95526499D01*
X72805000Y-95177777D01*
X72805000Y-94822223D01*
X72735635Y-94473501D01*
X72599571Y-94145012D01*
X72402035Y-93849379D01*
X72150621Y-93597965D01*
X71854988Y-93400429D01*
X71526499Y-93264365D01*
X71177777Y-93195000D01*
X70822223Y-93195000D01*
X70473501Y-93264365D01*
X70145012Y-93400429D01*
X69849379Y-93597965D01*
X69597965Y-93849379D01*
X69420482Y-94115000D01*
X61885000Y-94115000D01*
X61885000Y-86885000D01*
X62865479Y-86885000D01*
X62885363Y-86914759D01*
X63085241Y-87114637D01*
X63320273Y-87271680D01*
X63581426Y-87379853D01*
X63858665Y-87435000D01*
X64141335Y-87435000D01*
X64418574Y-87379853D01*
X64679727Y-87271680D01*
X64914759Y-87114637D01*
X65114637Y-86914759D01*
X65271680Y-86679727D01*
X65379853Y-86418574D01*
X65435000Y-86141335D01*
X65435000Y-85858665D01*
X65379853Y-85581426D01*
X65271680Y-85320273D01*
X65114637Y-85085241D01*
X64914759Y-84885363D01*
X64679727Y-84728320D01*
X64418574Y-84620147D01*
X64141335Y-84565000D01*
X63858665Y-84565000D01*
X63581426Y-84620147D01*
X63320273Y-84728320D01*
X63085241Y-84885363D01*
X62885363Y-85085241D01*
X62865479Y-85115000D01*
X61043477Y-85115000D01*
X61000000Y-85110718D01*
X60956524Y-85115000D01*
X60956523Y-85115000D01*
X60826510Y-85127805D01*
X60659687Y-85178411D01*
X60505941Y-85260589D01*
X60371183Y-85371183D01*
X60260589Y-85505941D01*
X60178411Y-85659687D01*
X60127805Y-85826510D01*
X60110718Y-86000000D01*
X60115001Y-86043487D01*
X60115000Y-94956521D01*
X60110718Y-95000000D01*
X60115000Y-95043479D01*
X60115000Y-95920482D01*
X59849379Y-96097965D01*
X59597965Y-96349379D01*
X59400429Y-96645012D01*
X59264365Y-96973501D01*
X59195000Y-97322223D01*
X54660000Y-97322223D01*
X54660000Y-81565032D01*
X55785693Y-81565032D01*
X56289527Y-82152567D01*
X57151735Y-82601564D01*
X58084969Y-82873724D01*
X59053368Y-82958591D01*
X60019716Y-82852901D01*
X60946876Y-82560716D01*
X61710473Y-82152567D01*
X62214307Y-81565032D01*
X59000000Y-78350725D01*
X55785693Y-81565032D01*
X54660000Y-81565032D01*
X54660000Y-80359809D01*
X54847433Y-80710473D01*
X55434968Y-81214307D01*
X58649275Y-78000000D01*
X59350725Y-78000000D01*
X62565032Y-81214307D01*
X63152567Y-80710473D01*
X63601564Y-79848265D01*
X63873724Y-78915031D01*
X63949237Y-78053368D01*
X131041409Y-78053368D01*
X131147099Y-79019716D01*
X131439284Y-79946876D01*
X131847433Y-80710473D01*
X132434968Y-81214307D01*
X135649275Y-78000000D01*
X132434968Y-74785693D01*
X131847433Y-75289527D01*
X131398436Y-76151735D01*
X131126276Y-77084969D01*
X131041409Y-78053368D01*
X63949237Y-78053368D01*
X63958591Y-77946632D01*
X63852901Y-76980284D01*
X63560716Y-76053124D01*
X63152567Y-75289527D01*
X62565032Y-74785693D01*
X59350725Y-78000000D01*
X58649275Y-78000000D01*
X58635133Y-77985858D01*
X58985858Y-77635133D01*
X59000000Y-77649275D01*
X62214307Y-74434968D01*
X61710473Y-73847433D01*
X61350546Y-73660000D01*
X133640191Y-73660000D01*
X133289527Y-73847433D01*
G37*
X133289527Y-73847433D02*
X132785693Y-74434968D01*
X136000000Y-77649275D01*
X136014143Y-77635133D01*
X136364868Y-77985858D01*
X136350725Y-78000000D01*
X139565032Y-81214307D01*
X140152567Y-80710473D01*
X140340000Y-80350546D01*
X140340001Y-122640193D01*
X140152567Y-122289527D01*
X139565032Y-121785693D01*
X136350725Y-125000000D01*
X136364868Y-125014143D01*
X136014143Y-125364868D01*
X136000000Y-125350725D01*
X132785693Y-128565032D01*
X133289527Y-129152567D01*
X133649454Y-129340000D01*
X61359809Y-129340000D01*
X61710473Y-129152567D01*
X62214307Y-128565032D01*
X59000000Y-125350725D01*
X58985858Y-125364868D01*
X58635133Y-125014143D01*
X58649275Y-125000000D01*
X59350725Y-125000000D01*
X62565032Y-128214307D01*
X63152567Y-127710473D01*
X63601564Y-126848265D01*
X63873724Y-125915031D01*
X63958591Y-124946632D01*
X63948971Y-124858665D01*
X75565000Y-124858665D01*
X75565000Y-125141335D01*
X75620147Y-125418574D01*
X75728320Y-125679727D01*
X75885363Y-125914759D01*
X75990000Y-126019396D01*
X75990001Y-127950383D01*
X75985114Y-128000000D01*
X76004615Y-128197994D01*
X76062368Y-128388380D01*
X76156153Y-128563840D01*
X76282367Y-128717633D01*
X76436160Y-128843847D01*
X76611620Y-128937632D01*
X76802006Y-128995385D01*
X76950392Y-129010000D01*
X76950393Y-129010000D01*
X77000000Y-129014886D01*
X77049608Y-129010000D01*
X84950392Y-129010000D01*
X85000000Y-129014886D01*
X85049607Y-129010000D01*
X99950392Y-129010000D01*
X100000000Y-129014886D01*
X100049607Y-129010000D01*
X100049608Y-129010000D01*
X100197994Y-128995385D01*
X100388380Y-128937632D01*
X100563840Y-128843847D01*
X100717633Y-128717633D01*
X100843847Y-128563840D01*
X100937632Y-128388380D01*
X100995385Y-128197994D01*
X101001915Y-128131694D01*
X101010000Y-128049608D01*
X101010000Y-128049607D01*
X101014886Y-128000000D01*
X101010000Y-127950392D01*
X101010000Y-126838072D01*
X101200000Y-126838072D01*
X101324482Y-126825812D01*
X101444180Y-126789502D01*
X101554494Y-126730537D01*
X101651185Y-126651185D01*
X101730537Y-126554494D01*
X101789502Y-126444180D01*
X101825812Y-126324482D01*
X101838072Y-126200000D01*
X101838072Y-125059990D01*
X110631635Y-125059990D01*
X113750744Y-128179100D01*
X113782367Y-128217633D01*
X113936160Y-128343847D01*
X114019474Y-128388379D01*
X114111620Y-128437632D01*
X114302005Y-128495385D01*
X114500000Y-128514886D01*
X114549608Y-128510000D01*
X114708463Y-128510000D01*
X114730013Y-128542252D01*
X114957748Y-128769987D01*
X115225537Y-128948918D01*
X115523088Y-129072168D01*
X115838967Y-129135000D01*
X116161033Y-129135000D01*
X116476912Y-129072168D01*
X116774463Y-128948918D01*
X117042252Y-128769987D01*
X117269987Y-128542252D01*
X117291537Y-128510000D01*
X121208463Y-128510000D01*
X121230013Y-128542252D01*
X121457748Y-128769987D01*
X121725537Y-128948918D01*
X122023088Y-129072168D01*
X122338967Y-129135000D01*
X122661033Y-129135000D01*
X122976912Y-129072168D01*
X123274463Y-128948918D01*
X123542252Y-128769987D01*
X123769987Y-128542252D01*
X123948918Y-128274463D01*
X124072168Y-127976912D01*
X124135000Y-127661033D01*
X124135000Y-127338967D01*
X124072168Y-127023088D01*
X123948918Y-126725537D01*
X123769987Y-126457748D01*
X123542252Y-126230013D01*
X123274463Y-126051082D01*
X122976912Y-125927832D01*
X122661033Y-125865000D01*
X122338967Y-125865000D01*
X122023088Y-125927832D01*
X121725537Y-126051082D01*
X121457748Y-126230013D01*
X121230013Y-126457748D01*
X121208463Y-126490000D01*
X117291537Y-126490000D01*
X117269987Y-126457748D01*
X117042252Y-126230013D01*
X116774463Y-126051082D01*
X116476912Y-125927832D01*
X116161033Y-125865000D01*
X115838967Y-125865000D01*
X115523088Y-125927832D01*
X115225537Y-126051082D01*
X114957748Y-126230013D01*
X114808058Y-126379703D01*
X113481723Y-125053368D01*
X131041409Y-125053368D01*
X131147099Y-126019716D01*
X131439284Y-126946876D01*
X131847433Y-127710473D01*
X132434968Y-128214307D01*
X135649275Y-125000000D01*
X132434968Y-121785693D01*
X131847433Y-122289527D01*
X131398436Y-123151735D01*
X131126276Y-124084969D01*
X131041409Y-125053368D01*
X113481723Y-125053368D01*
X111799251Y-123370896D01*
X111767623Y-123332357D01*
X111613830Y-123206143D01*
X111438370Y-123112358D01*
X111247984Y-123054605D01*
X111099598Y-123039990D01*
X111049990Y-123035104D01*
X111000382Y-123039990D01*
X99656101Y-123039990D01*
X99606493Y-123035104D01*
X99408498Y-123054605D01*
X99313306Y-123083482D01*
X99218113Y-123112358D01*
X99125374Y-123161928D01*
X98800000Y-123161928D01*
X98675518Y-123174188D01*
X98555820Y-123210498D01*
X98445506Y-123269463D01*
X98348815Y-123348815D01*
X98269463Y-123445506D01*
X98210498Y-123555820D01*
X98174188Y-123675518D01*
X98161928Y-123800000D01*
X98161928Y-124216566D01*
X98128356Y-124134931D01*
X98123946Y-124126679D01*
X97853954Y-123996771D01*
X96850725Y-125000000D01*
X97853954Y-126003229D01*
X98123946Y-125873321D01*
X98161928Y-125782278D01*
X98161928Y-126200000D01*
X98174188Y-126324482D01*
X98210498Y-126444180D01*
X98269463Y-126554494D01*
X98348815Y-126651185D01*
X98445506Y-126730537D01*
X98555820Y-126789502D01*
X98675518Y-126825812D01*
X98800000Y-126838072D01*
X98990000Y-126838072D01*
X98990000Y-126990000D01*
X86010000Y-126990000D01*
X86010000Y-126399870D01*
X86044180Y-126389502D01*
X86154494Y-126330537D01*
X86251185Y-126251185D01*
X86320606Y-126166595D01*
X86365713Y-126294944D01*
X86630532Y-126393805D01*
X86909549Y-126439103D01*
X87192042Y-126429097D01*
X87467155Y-126364172D01*
X87491823Y-126353954D01*
X95496771Y-126353954D01*
X95626679Y-126623946D01*
X95960275Y-126763118D01*
X96314613Y-126834536D01*
X96676075Y-126835453D01*
X97030771Y-126765834D01*
X97365069Y-126628356D01*
X97373321Y-126623946D01*
X97503229Y-126353954D01*
X96500000Y-125350725D01*
X95496771Y-126353954D01*
X87491823Y-126353954D01*
X87634287Y-126294944D01*
X87714885Y-126065610D01*
X87000000Y-125350725D01*
X86985858Y-125364868D01*
X86635133Y-125014143D01*
X86649275Y-125000000D01*
X87350725Y-125000000D01*
X88065610Y-125714885D01*
X88294944Y-125634287D01*
X88393805Y-125369468D01*
X88425202Y-125176075D01*
X94664547Y-125176075D01*
X94734166Y-125530771D01*
X94871644Y-125865069D01*
X94876054Y-125873321D01*
X95146046Y-126003229D01*
X96149275Y-125000000D01*
X95146046Y-123996771D01*
X94876054Y-124126679D01*
X94736882Y-124460275D01*
X94665464Y-124814613D01*
X94664547Y-125176075D01*
X88425202Y-125176075D01*
X88439103Y-125090451D01*
X88429097Y-124807958D01*
X88364172Y-124532845D01*
X88294944Y-124365713D01*
X88065610Y-124285115D01*
X87350725Y-125000000D01*
X86649275Y-125000000D01*
X86635133Y-124985858D01*
X86985858Y-124635133D01*
X87000000Y-124649275D01*
X87714885Y-123934390D01*
X87634287Y-123705056D01*
X87476217Y-123646046D01*
X95496771Y-123646046D01*
X96500000Y-124649275D01*
X97503229Y-123646046D01*
X97373321Y-123376054D01*
X97039725Y-123236882D01*
X96685387Y-123165464D01*
X96323925Y-123164547D01*
X95969229Y-123234166D01*
X95634931Y-123371644D01*
X95626679Y-123376054D01*
X95496771Y-123646046D01*
X87476217Y-123646046D01*
X87369468Y-123606195D01*
X87090451Y-123560897D01*
X86807958Y-123570903D01*
X86532845Y-123635828D01*
X86365713Y-123705056D01*
X86320606Y-123833405D01*
X86251185Y-123748815D01*
X86154494Y-123669463D01*
X86044180Y-123610498D01*
X85924482Y-123574188D01*
X85800000Y-123561928D01*
X84200000Y-123561928D01*
X84075518Y-123574188D01*
X83955820Y-123610498D01*
X83845506Y-123669463D01*
X83748815Y-123748815D01*
X83669463Y-123845506D01*
X83610498Y-123955820D01*
X83574188Y-124075518D01*
X83561928Y-124200000D01*
X83561928Y-125800000D01*
X83574188Y-125924482D01*
X83610498Y-126044180D01*
X83669463Y-126154494D01*
X83748815Y-126251185D01*
X83845506Y-126330537D01*
X83955820Y-126389502D01*
X83990001Y-126399871D01*
X83990000Y-126990000D01*
X78010000Y-126990000D01*
X78010000Y-126019396D01*
X78114637Y-125914759D01*
X78271680Y-125679727D01*
X78379853Y-125418574D01*
X78435000Y-125141335D01*
X78435000Y-124858665D01*
X78379853Y-124581426D01*
X78271680Y-124320273D01*
X78114637Y-124085241D01*
X77914759Y-123885363D01*
X77679727Y-123728320D01*
X77418574Y-123620147D01*
X77141335Y-123565000D01*
X76858665Y-123565000D01*
X76581426Y-123620147D01*
X76320273Y-123728320D01*
X76085241Y-123885363D01*
X75885363Y-124085241D01*
X75728320Y-124320273D01*
X75620147Y-124581426D01*
X75565000Y-124858665D01*
X63948971Y-124858665D01*
X63852901Y-123980284D01*
X63560716Y-123053124D01*
X63152567Y-122289527D01*
X62565032Y-121785693D01*
X59350725Y-125000000D01*
X58649275Y-125000000D01*
X55434968Y-121785693D01*
X54847433Y-122289527D01*
X54660000Y-122649454D01*
X54660000Y-121434968D01*
X55785693Y-121434968D01*
X59000000Y-124649275D01*
X62214307Y-121434968D01*
X61710473Y-120847433D01*
X60848265Y-120398436D01*
X59915031Y-120126276D01*
X58946632Y-120041409D01*
X57980284Y-120147099D01*
X57053124Y-120439284D01*
X56289527Y-120847433D01*
X55785693Y-121434968D01*
X54660000Y-121434968D01*
X54660000Y-97322223D01*
X59195000Y-97322223D01*
X59195000Y-97677777D01*
X59264365Y-98026499D01*
X59400429Y-98354988D01*
X59597965Y-98650621D01*
X59849379Y-98902035D01*
X60115000Y-99079518D01*
X60115001Y-110570299D01*
X60075518Y-110574188D01*
X59955820Y-110610498D01*
X59845506Y-110669463D01*
X59748815Y-110748815D01*
X59669463Y-110845506D01*
X59610498Y-110955820D01*
X59574188Y-111075518D01*
X59561928Y-111200000D01*
X59561928Y-112800000D01*
X59574188Y-112924482D01*
X59610498Y-113044180D01*
X59669463Y-113154494D01*
X59748815Y-113251185D01*
X59845506Y-113330537D01*
X59955820Y-113389502D01*
X60075518Y-113425812D01*
X60200000Y-113438072D01*
X61800000Y-113438072D01*
X61924482Y-113425812D01*
X62044180Y-113389502D01*
X62154494Y-113330537D01*
X62251185Y-113251185D01*
X62264790Y-113234607D01*
X62320273Y-113271680D01*
X62581426Y-113379853D01*
X62858665Y-113435000D01*
X63141335Y-113435000D01*
X63418574Y-113379853D01*
X63679727Y-113271680D01*
X63914759Y-113114637D01*
X64019396Y-113010000D01*
X76685485Y-113010000D01*
X76509744Y-113082795D01*
X76340226Y-113196063D01*
X76196063Y-113340226D01*
X76082795Y-113509744D01*
X76004774Y-113698102D01*
X75965000Y-113898061D01*
X75965000Y-114101939D01*
X75990000Y-114227624D01*
X75990001Y-116360603D01*
X75885363Y-116465241D01*
X75728320Y-116700273D01*
X75620147Y-116961426D01*
X75565000Y-117238665D01*
X75565000Y-117521335D01*
X75620147Y-117798574D01*
X75728320Y-118059727D01*
X75885363Y-118294759D01*
X76085241Y-118494637D01*
X76320273Y-118651680D01*
X76581426Y-118759853D01*
X76858665Y-118815000D01*
X77141335Y-118815000D01*
X77418574Y-118759853D01*
X77679727Y-118651680D01*
X77914759Y-118494637D01*
X78114637Y-118294759D01*
X78271680Y-118059727D01*
X78379853Y-117798574D01*
X78435000Y-117521335D01*
X78435000Y-117238665D01*
X78379853Y-116961426D01*
X78271680Y-116700273D01*
X78114637Y-116465241D01*
X78010000Y-116360604D01*
X78010000Y-115246052D01*
X83642789Y-115246052D01*
X83710751Y-115410150D01*
X83858460Y-115649562D01*
X84050037Y-115855557D01*
X84278121Y-116020219D01*
X84533946Y-116137220D01*
X84752000Y-116034667D01*
X84752000Y-115028000D01*
X85248000Y-115028000D01*
X85248000Y-116034667D01*
X85466054Y-116137220D01*
X85721879Y-116020219D01*
X85949963Y-115855557D01*
X86141540Y-115649562D01*
X86289249Y-115410150D01*
X86357211Y-115246052D01*
X86251923Y-115028000D01*
X85248000Y-115028000D01*
X84752000Y-115028000D01*
X83748077Y-115028000D01*
X83642789Y-115246052D01*
X78010000Y-115246052D01*
X78010000Y-114227623D01*
X78035000Y-114101939D01*
X78035000Y-113898061D01*
X77995226Y-113698102D01*
X77917205Y-113509744D01*
X77803937Y-113340226D01*
X77659774Y-113196063D01*
X77490256Y-113082795D01*
X77314515Y-113010000D01*
X83788638Y-113010000D01*
X83885363Y-113154759D01*
X84085241Y-113354637D01*
X84320273Y-113511680D01*
X84330396Y-113515873D01*
X84278121Y-113539781D01*
X84050037Y-113704443D01*
X83858460Y-113910438D01*
X83710751Y-114149850D01*
X83642789Y-114313948D01*
X83748077Y-114532000D01*
X84752000Y-114532000D01*
X84752000Y-114512000D01*
X85248000Y-114512000D01*
X85248000Y-114532000D01*
X86251923Y-114532000D01*
X86357211Y-114313948D01*
X86289249Y-114149850D01*
X86141540Y-113910438D01*
X85949963Y-113704443D01*
X85721879Y-113539781D01*
X85669604Y-113515873D01*
X85679727Y-113511680D01*
X85914759Y-113354637D01*
X86114637Y-113154759D01*
X86271680Y-112919727D01*
X86379853Y-112658574D01*
X86435000Y-112381335D01*
X86435000Y-112098665D01*
X86379853Y-111821426D01*
X86271680Y-111560273D01*
X86114637Y-111325241D01*
X85914759Y-111125363D01*
X85682241Y-110970000D01*
X85914759Y-110814637D01*
X86114637Y-110614759D01*
X86134521Y-110585000D01*
X87173422Y-110585000D01*
X91191983Y-114603561D01*
X91185000Y-114638665D01*
X91185000Y-114921335D01*
X91240147Y-115198574D01*
X91348320Y-115459727D01*
X91505363Y-115694759D01*
X91705241Y-115894637D01*
X91940273Y-116051680D01*
X92201426Y-116159853D01*
X92478665Y-116215000D01*
X92761335Y-116215000D01*
X93038574Y-116159853D01*
X93299727Y-116051680D01*
X93534759Y-115894637D01*
X93544396Y-115885000D01*
X98956524Y-115885000D01*
X99000000Y-115889282D01*
X99173490Y-115872195D01*
X99340313Y-115821589D01*
X99494059Y-115739411D01*
X99628817Y-115628817D01*
X99739411Y-115494059D01*
X99821589Y-115340313D01*
X99872195Y-115173490D01*
X99885000Y-115043477D01*
X99889282Y-115000000D01*
X99885000Y-114956523D01*
X99885000Y-112134521D01*
X99914759Y-112114637D01*
X100114637Y-111914759D01*
X100271680Y-111679727D01*
X100379853Y-111418574D01*
X100435000Y-111141335D01*
X100435000Y-110858665D01*
X100379853Y-110581426D01*
X100271680Y-110320273D01*
X100114637Y-110085241D01*
X99914759Y-109885363D01*
X99679727Y-109728320D01*
X99418574Y-109620147D01*
X99141335Y-109565000D01*
X98858665Y-109565000D01*
X98581426Y-109620147D01*
X98320273Y-109728320D01*
X98085241Y-109885363D01*
X97885363Y-110085241D01*
X97728320Y-110320273D01*
X97620147Y-110581426D01*
X97565000Y-110858665D01*
X97565000Y-111141335D01*
X97620147Y-111418574D01*
X97728320Y-111679727D01*
X97885363Y-111914759D01*
X98085241Y-112114637D01*
X98115000Y-112134521D01*
X98115001Y-114115000D01*
X93897780Y-114115000D01*
X93891680Y-114100273D01*
X93734637Y-113865241D01*
X93534759Y-113665363D01*
X93302241Y-113510000D01*
X93534759Y-113354637D01*
X93734637Y-113154759D01*
X93891680Y-112919727D01*
X93999853Y-112658574D01*
X94055000Y-112381335D01*
X94055000Y-112098665D01*
X93999853Y-111821426D01*
X93891680Y-111560273D01*
X93734637Y-111325241D01*
X93534759Y-111125363D01*
X93505000Y-111105479D01*
X93505000Y-110834521D01*
X93534759Y-110814637D01*
X93734637Y-110614759D01*
X93754521Y-110585000D01*
X95656531Y-110585000D01*
X95700000Y-110589281D01*
X95743469Y-110585000D01*
X95743477Y-110585000D01*
X95873490Y-110572195D01*
X96040313Y-110521589D01*
X96194059Y-110439411D01*
X96328817Y-110328817D01*
X96356534Y-110295044D01*
X99220243Y-107431336D01*
X99238665Y-107435000D01*
X99521335Y-107435000D01*
X99798574Y-107379853D01*
X100059727Y-107271680D01*
X100294759Y-107114637D01*
X100494637Y-106914759D01*
X100651680Y-106679727D01*
X100759853Y-106418574D01*
X100815000Y-106141335D01*
X100815000Y-105858665D01*
X100759853Y-105581426D01*
X100651680Y-105320273D01*
X100494637Y-105085241D01*
X100294759Y-104885363D01*
X100059727Y-104728320D01*
X99798574Y-104620147D01*
X99521335Y-104565000D01*
X99238665Y-104565000D01*
X98961426Y-104620147D01*
X98700273Y-104728320D01*
X98465241Y-104885363D01*
X98265363Y-105085241D01*
X98108320Y-105320273D01*
X98000147Y-105581426D01*
X97945000Y-105858665D01*
X97945000Y-106141335D01*
X97955301Y-106193120D01*
X95333422Y-108815000D01*
X93754521Y-108815000D01*
X93734637Y-108785241D01*
X93534759Y-108585363D01*
X93302241Y-108430000D01*
X93534759Y-108274637D01*
X93734637Y-108074759D01*
X93754521Y-108045000D01*
X94796531Y-108045000D01*
X94840000Y-108049281D01*
X94883469Y-108045000D01*
X94883477Y-108045000D01*
X95013490Y-108032195D01*
X95180313Y-107981589D01*
X95334059Y-107899411D01*
X95468817Y-107788817D01*
X95496534Y-107755044D01*
X95595045Y-107656533D01*
X95628817Y-107628817D01*
X95739411Y-107494059D01*
X95821589Y-107340313D01*
X95872195Y-107173490D01*
X95885000Y-107043477D01*
X95885000Y-107043467D01*
X95889281Y-107000001D01*
X95885000Y-106956535D01*
X95885000Y-102885000D01*
X97865479Y-102885000D01*
X97885363Y-102914759D01*
X98085241Y-103114637D01*
X98320273Y-103271680D01*
X98581426Y-103379853D01*
X98858665Y-103435000D01*
X99141335Y-103435000D01*
X99418574Y-103379853D01*
X99679727Y-103271680D01*
X99914759Y-103114637D01*
X100114637Y-102914759D01*
X100271680Y-102679727D01*
X100379853Y-102418574D01*
X100435000Y-102141335D01*
X100435000Y-102000000D01*
X103110718Y-102000000D01*
X103115001Y-102043487D01*
X103115000Y-115956523D01*
X103110718Y-116000000D01*
X103127805Y-116173490D01*
X103178411Y-116340313D01*
X103260589Y-116494059D01*
X103371183Y-116628817D01*
X103505941Y-116739411D01*
X103659687Y-116821589D01*
X103826510Y-116872195D01*
X104000000Y-116889282D01*
X104043476Y-116885000D01*
X104665210Y-116885000D01*
X104727688Y-116978505D01*
X104941495Y-117192312D01*
X105192905Y-117360299D01*
X105472257Y-117476011D01*
X105768816Y-117535000D01*
X106071184Y-117535000D01*
X106367743Y-117476011D01*
X106647095Y-117360299D01*
X106898505Y-117192312D01*
X107112312Y-116978505D01*
X107190000Y-116862237D01*
X107267688Y-116978505D01*
X107450000Y-117160817D01*
X107450001Y-119410382D01*
X107445114Y-119460000D01*
X107464615Y-119657994D01*
X107522368Y-119848379D01*
X107569288Y-119936160D01*
X107616154Y-120023840D01*
X107742368Y-120177633D01*
X107780902Y-120209257D01*
X108250735Y-120679089D01*
X108282367Y-120717633D01*
X108436160Y-120843847D01*
X108611620Y-120937632D01*
X108802006Y-120995385D01*
X108950392Y-121010000D01*
X108950394Y-121010000D01*
X108999999Y-121014886D01*
X109049604Y-121010000D01*
X114990001Y-121010000D01*
X114990000Y-121708463D01*
X114957748Y-121730013D01*
X114730013Y-121957748D01*
X114551082Y-122225537D01*
X114427832Y-122523088D01*
X114365000Y-122838967D01*
X114365000Y-123161033D01*
X114427832Y-123476912D01*
X114551082Y-123774463D01*
X114730013Y-124042252D01*
X114957748Y-124269987D01*
X115225537Y-124448918D01*
X115523088Y-124572168D01*
X115838967Y-124635000D01*
X116161033Y-124635000D01*
X116476912Y-124572168D01*
X116774463Y-124448918D01*
X117042252Y-124269987D01*
X117269987Y-124042252D01*
X117448918Y-123774463D01*
X117572168Y-123476912D01*
X117635000Y-123161033D01*
X117635000Y-122838967D01*
X117572168Y-122523088D01*
X117448918Y-122225537D01*
X117269987Y-121957748D01*
X117042252Y-121730013D01*
X117010000Y-121708463D01*
X117010000Y-121010000D01*
X119950392Y-121010000D01*
X120000000Y-121014886D01*
X120049608Y-121010000D01*
X121490001Y-121010000D01*
X121490001Y-121708463D01*
X121457748Y-121730013D01*
X121230013Y-121957748D01*
X121051082Y-122225537D01*
X120927832Y-122523088D01*
X120865000Y-122838967D01*
X120865000Y-123161033D01*
X120927832Y-123476912D01*
X121051082Y-123774463D01*
X121230013Y-124042252D01*
X121457748Y-124269987D01*
X121725537Y-124448918D01*
X122023088Y-124572168D01*
X122338967Y-124635000D01*
X122661033Y-124635000D01*
X122976912Y-124572168D01*
X123274463Y-124448918D01*
X123542252Y-124269987D01*
X123769987Y-124042252D01*
X123948918Y-123774463D01*
X124072168Y-123476912D01*
X124135000Y-123161033D01*
X124135000Y-122838967D01*
X124072168Y-122523088D01*
X123948918Y-122225537D01*
X123769987Y-121957748D01*
X123542252Y-121730013D01*
X123510000Y-121708463D01*
X123510000Y-121434968D01*
X132785693Y-121434968D01*
X136000000Y-124649275D01*
X139214307Y-121434968D01*
X138710473Y-120847433D01*
X137848265Y-120398436D01*
X136915031Y-120126276D01*
X135946632Y-120041409D01*
X134980284Y-120147099D01*
X134053124Y-120439284D01*
X133289527Y-120847433D01*
X132785693Y-121434968D01*
X123510000Y-121434968D01*
X123510000Y-120549608D01*
X123514886Y-120500000D01*
X123495385Y-120302005D01*
X123437632Y-120111620D01*
X123343847Y-119936160D01*
X123217633Y-119782367D01*
X123179094Y-119750739D01*
X122749261Y-119320906D01*
X122717633Y-119282367D01*
X122563840Y-119156153D01*
X122388380Y-119062368D01*
X122197994Y-119004615D01*
X122049608Y-118990000D01*
X122000000Y-118985114D01*
X121950392Y-118990000D01*
X121470000Y-118990000D01*
X121470000Y-117160817D01*
X121504944Y-117125873D01*
X121510498Y-117144180D01*
X121569463Y-117254494D01*
X121648815Y-117351185D01*
X121745506Y-117430537D01*
X121855820Y-117489502D01*
X121975518Y-117525812D01*
X122100000Y-117538072D01*
X123900000Y-117538072D01*
X124024482Y-117525812D01*
X124144180Y-117489502D01*
X124254494Y-117430537D01*
X124351185Y-117351185D01*
X124430537Y-117254494D01*
X124489502Y-117144180D01*
X124525812Y-117024482D01*
X124538072Y-116900000D01*
X124538072Y-115100000D01*
X124525812Y-114975518D01*
X124498354Y-114885000D01*
X135956523Y-114885000D01*
X136000000Y-114889282D01*
X136043476Y-114885000D01*
X136043477Y-114885000D01*
X136173490Y-114872195D01*
X136340313Y-114821589D01*
X136494059Y-114739411D01*
X136628817Y-114628817D01*
X136739411Y-114494059D01*
X136821589Y-114340313D01*
X136872195Y-114173490D01*
X136889282Y-114000000D01*
X136885000Y-113956523D01*
X136885000Y-105043477D01*
X136889282Y-105000000D01*
X136872195Y-104826510D01*
X136821589Y-104659687D01*
X136739411Y-104505941D01*
X136628817Y-104371183D01*
X136494059Y-104260589D01*
X136340313Y-104178411D01*
X136173490Y-104127805D01*
X136043477Y-104115000D01*
X136000000Y-104110718D01*
X135956524Y-104115000D01*
X134794369Y-104115000D01*
X134764482Y-103964750D01*
X134626156Y-103630801D01*
X134425338Y-103330256D01*
X134169744Y-103074662D01*
X133869199Y-102873844D01*
X133535250Y-102735518D01*
X133180732Y-102665000D01*
X132819268Y-102665000D01*
X132464750Y-102735518D01*
X132130801Y-102873844D01*
X131830256Y-103074662D01*
X131574662Y-103330256D01*
X131384402Y-103615000D01*
X121866578Y-103615000D01*
X121656534Y-103404956D01*
X121628817Y-103371183D01*
X121494059Y-103260589D01*
X121340313Y-103178411D01*
X121173490Y-103127805D01*
X121043477Y-103115000D01*
X121043469Y-103115000D01*
X121000000Y-103110719D01*
X120956531Y-103115000D01*
X118885000Y-103115000D01*
X118885000Y-97538072D01*
X118900000Y-97538072D01*
X119024482Y-97525812D01*
X119144180Y-97489502D01*
X119254494Y-97430537D01*
X119351185Y-97351185D01*
X119430537Y-97254494D01*
X119489502Y-97144180D01*
X119496887Y-97119836D01*
X119537042Y-97162037D01*
X119783016Y-97335376D01*
X120058080Y-97457397D01*
X120292000Y-97356093D01*
X120292000Y-96248000D01*
X120272000Y-96248000D01*
X120272000Y-95752000D01*
X120292000Y-95752000D01*
X120292000Y-94643907D01*
X120058080Y-94542603D01*
X119783016Y-94664624D01*
X119537042Y-94837963D01*
X119496887Y-94880164D01*
X119489502Y-94855820D01*
X119430537Y-94745506D01*
X119351185Y-94648815D01*
X119254494Y-94569463D01*
X119144180Y-94510498D01*
X119024482Y-94474188D01*
X118900000Y-94461928D01*
X117100000Y-94461928D01*
X116975518Y-94474188D01*
X116855820Y-94510498D01*
X116745506Y-94569463D01*
X116648815Y-94648815D01*
X116569463Y-94745506D01*
X116510498Y-94855820D01*
X116474188Y-94975518D01*
X116461928Y-95100000D01*
X116461928Y-96900000D01*
X116474188Y-97024482D01*
X116510498Y-97144180D01*
X116569463Y-97254494D01*
X116648815Y-97351185D01*
X116745506Y-97430537D01*
X116855820Y-97489502D01*
X116975518Y-97525812D01*
X117100000Y-97538072D01*
X117115000Y-97538072D01*
X117115001Y-103956513D01*
X117110718Y-104000000D01*
X117127805Y-104173490D01*
X117178411Y-104340313D01*
X117260589Y-104494059D01*
X117371183Y-104628817D01*
X117505941Y-104739411D01*
X117659687Y-104821589D01*
X117826510Y-104872195D01*
X117956523Y-104885000D01*
X117956524Y-104885000D01*
X118000000Y-104889282D01*
X118043477Y-104885000D01*
X120633422Y-104885000D01*
X120843466Y-105095044D01*
X120871183Y-105128817D01*
X121005941Y-105239411D01*
X121159687Y-105321589D01*
X121326510Y-105372195D01*
X121456523Y-105385000D01*
X121456531Y-105385000D01*
X121500000Y-105389281D01*
X121543469Y-105385000D01*
X131384402Y-105385000D01*
X131574662Y-105669744D01*
X131830256Y-105925338D01*
X132130801Y-106126156D01*
X132217162Y-106161928D01*
X131800000Y-106161928D01*
X131675518Y-106174188D01*
X131555820Y-106210498D01*
X131445506Y-106269463D01*
X131348815Y-106348815D01*
X131269463Y-106445506D01*
X131210498Y-106555820D01*
X131174188Y-106675518D01*
X131161928Y-106800000D01*
X131161928Y-107115000D01*
X111043477Y-107115000D01*
X111000000Y-107110718D01*
X110956524Y-107115000D01*
X109345000Y-107115000D01*
X109345000Y-99503465D01*
X109349281Y-99459999D01*
X109345000Y-99416533D01*
X109345000Y-99416523D01*
X109332195Y-99286510D01*
X109281589Y-99119687D01*
X109199411Y-98965941D01*
X109088817Y-98831183D01*
X109055044Y-98803466D01*
X108656534Y-98404956D01*
X108628817Y-98371183D01*
X108494059Y-98260589D01*
X108340313Y-98178411D01*
X108173490Y-98127805D01*
X108043477Y-98115000D01*
X108043469Y-98115000D01*
X108000000Y-98110719D01*
X107956531Y-98115000D01*
X107885000Y-98115000D01*
X107885000Y-97538072D01*
X107900000Y-97538072D01*
X108024482Y-97525812D01*
X108144180Y-97489502D01*
X108254494Y-97430537D01*
X108351185Y-97351185D01*
X108430537Y-97254494D01*
X108489502Y-97144180D01*
X108496887Y-97119836D01*
X108537042Y-97162037D01*
X108783016Y-97335376D01*
X109058080Y-97457397D01*
X109292000Y-97356093D01*
X109292000Y-96248000D01*
X109272000Y-96248000D01*
X109272000Y-95752000D01*
X109292000Y-95752000D01*
X109292000Y-94643907D01*
X109788000Y-94643907D01*
X109788000Y-95752000D01*
X109808000Y-95752000D01*
X109808000Y-96248000D01*
X109788000Y-96248000D01*
X109788000Y-97356093D01*
X110021920Y-97457397D01*
X110296984Y-97335376D01*
X110542958Y-97162037D01*
X110750389Y-96944041D01*
X110805973Y-96856209D01*
X110887688Y-96978505D01*
X111101495Y-97192312D01*
X111352905Y-97360299D01*
X111632257Y-97476011D01*
X111928816Y-97535000D01*
X112231184Y-97535000D01*
X112527743Y-97476011D01*
X112807095Y-97360299D01*
X113058505Y-97192312D01*
X113272312Y-96978505D01*
X113440299Y-96727095D01*
X113556011Y-96447743D01*
X113615000Y-96151184D01*
X113615000Y-95848816D01*
X113556011Y-95552257D01*
X113440299Y-95272905D01*
X113272312Y-95021495D01*
X113058505Y-94807688D01*
X112807095Y-94639701D01*
X112527743Y-94523989D01*
X112231184Y-94465000D01*
X111928816Y-94465000D01*
X111632257Y-94523989D01*
X111352905Y-94639701D01*
X111101495Y-94807688D01*
X110887688Y-95021495D01*
X110805973Y-95143791D01*
X110750389Y-95055959D01*
X110542958Y-94837963D01*
X110296984Y-94664624D01*
X110021920Y-94542603D01*
X109788000Y-94643907D01*
X109292000Y-94643907D01*
X109058080Y-94542603D01*
X108783016Y-94664624D01*
X108537042Y-94837963D01*
X108496887Y-94880164D01*
X108489502Y-94855820D01*
X108430537Y-94745506D01*
X108351185Y-94648815D01*
X108254494Y-94569463D01*
X108144180Y-94510498D01*
X108024482Y-94474188D01*
X107900000Y-94461928D01*
X106100000Y-94461928D01*
X105975518Y-94474188D01*
X105855820Y-94510498D01*
X105745506Y-94569463D01*
X105648815Y-94648815D01*
X105569463Y-94745506D01*
X105510498Y-94855820D01*
X105474188Y-94975518D01*
X105461928Y-95100000D01*
X105461928Y-96900000D01*
X105474188Y-97024482D01*
X105510498Y-97144180D01*
X105569463Y-97254494D01*
X105648815Y-97351185D01*
X105745506Y-97430537D01*
X105855820Y-97489502D01*
X105975518Y-97525812D01*
X106100000Y-97538072D01*
X106115000Y-97538072D01*
X106115000Y-98956523D01*
X106110718Y-99000000D01*
X106127805Y-99173490D01*
X106178411Y-99340313D01*
X106260589Y-99494059D01*
X106371183Y-99628817D01*
X106505941Y-99739411D01*
X106659687Y-99821589D01*
X106826510Y-99872195D01*
X106908935Y-99880313D01*
X107000000Y-99889282D01*
X107043476Y-99885000D01*
X107575001Y-99885000D01*
X107575001Y-100925605D01*
X107534759Y-100885363D01*
X107299727Y-100728320D01*
X107038574Y-100620147D01*
X106761335Y-100565000D01*
X106478665Y-100565000D01*
X106201426Y-100620147D01*
X105940273Y-100728320D01*
X105705241Y-100885363D01*
X105505363Y-101085241D01*
X105485479Y-101115000D01*
X104043477Y-101115000D01*
X104000000Y-101110718D01*
X103956524Y-101115000D01*
X103956523Y-101115000D01*
X103826510Y-101127805D01*
X103659687Y-101178411D01*
X103505941Y-101260589D01*
X103371183Y-101371183D01*
X103260589Y-101505941D01*
X103178411Y-101659687D01*
X103127805Y-101826510D01*
X103110718Y-102000000D01*
X100435000Y-102000000D01*
X100435000Y-101858665D01*
X100379853Y-101581426D01*
X100271680Y-101320273D01*
X100114637Y-101085241D01*
X99914759Y-100885363D01*
X99679727Y-100728320D01*
X99418574Y-100620147D01*
X99141335Y-100565000D01*
X98858665Y-100565000D01*
X98581426Y-100620147D01*
X98320273Y-100728320D01*
X98085241Y-100885363D01*
X97885363Y-101085241D01*
X97865479Y-101115000D01*
X95043477Y-101115000D01*
X95000000Y-101110718D01*
X94956524Y-101115000D01*
X93684396Y-101115000D01*
X93534759Y-100965363D01*
X93302241Y-100810000D01*
X93534759Y-100654637D01*
X93734637Y-100454759D01*
X93891680Y-100219727D01*
X93999853Y-99958574D01*
X94055000Y-99681335D01*
X94055000Y-99398665D01*
X93999853Y-99121426D01*
X93891680Y-98860273D01*
X93734637Y-98625241D01*
X93534759Y-98425363D01*
X93302241Y-98270000D01*
X93534759Y-98114637D01*
X93734637Y-97914759D01*
X93891680Y-97679727D01*
X93999853Y-97418574D01*
X94055000Y-97141335D01*
X94055000Y-96858665D01*
X93999853Y-96581426D01*
X93891680Y-96320273D01*
X93734637Y-96085241D01*
X93534759Y-95885363D01*
X93299727Y-95728320D01*
X93038574Y-95620147D01*
X92761335Y-95565000D01*
X92478665Y-95565000D01*
X92201426Y-95620147D01*
X91940273Y-95728320D01*
X91885000Y-95765252D01*
X91885000Y-88497758D01*
X98442610Y-88497758D01*
X98546784Y-88749278D01*
X98720884Y-89018389D01*
X98944140Y-89248364D01*
X99207972Y-89430365D01*
X99502241Y-89557398D01*
X99752000Y-89457341D01*
X99752000Y-88248000D01*
X100248000Y-88248000D01*
X100248000Y-89457341D01*
X100497759Y-89557398D01*
X100792028Y-89430365D01*
X101055860Y-89248364D01*
X101279116Y-89018389D01*
X101453216Y-88749278D01*
X101557390Y-88497758D01*
X101455270Y-88248000D01*
X100248000Y-88248000D01*
X99752000Y-88248000D01*
X98544730Y-88248000D01*
X98442610Y-88497758D01*
X91885000Y-88497758D01*
X91885000Y-87502242D01*
X98442610Y-87502242D01*
X98544730Y-87752000D01*
X99752000Y-87752000D01*
X99752000Y-86542659D01*
X100248000Y-86542659D01*
X100248000Y-87752000D01*
X101455270Y-87752000D01*
X101557390Y-87502242D01*
X101453216Y-87250722D01*
X101279116Y-86981611D01*
X101055860Y-86751636D01*
X100792028Y-86569635D01*
X100497759Y-86442602D01*
X100248000Y-86542659D01*
X99752000Y-86542659D01*
X99502241Y-86442602D01*
X99207972Y-86569635D01*
X98944140Y-86751636D01*
X98720884Y-86981611D01*
X98546784Y-87250722D01*
X98442610Y-87502242D01*
X91885000Y-87502242D01*
X91885000Y-83348196D01*
X91961426Y-83379853D01*
X92238665Y-83435000D01*
X92521335Y-83435000D01*
X92798574Y-83379853D01*
X93059727Y-83271680D01*
X93294759Y-83114637D01*
X93494637Y-82914759D01*
X93651680Y-82679727D01*
X93759853Y-82418574D01*
X93815000Y-82141335D01*
X93815000Y-81858665D01*
X98565000Y-81858665D01*
X98565000Y-82141335D01*
X98620147Y-82418574D01*
X98728320Y-82679727D01*
X98885363Y-82914759D01*
X99085241Y-83114637D01*
X99320273Y-83271680D01*
X99581426Y-83379853D01*
X99858665Y-83435000D01*
X100141335Y-83435000D01*
X100418574Y-83379853D01*
X100679727Y-83271680D01*
X100914759Y-83114637D01*
X101114637Y-82914759D01*
X101134521Y-82885000D01*
X122195001Y-82885000D01*
X122195000Y-94745210D01*
X122101495Y-94807688D01*
X121887688Y-95021495D01*
X121805973Y-95143791D01*
X121750389Y-95055959D01*
X121542958Y-94837963D01*
X121296984Y-94664624D01*
X121021920Y-94542603D01*
X120788000Y-94643907D01*
X120788000Y-95752000D01*
X120808000Y-95752000D01*
X120808000Y-96248000D01*
X120788000Y-96248000D01*
X120788000Y-97356093D01*
X121021920Y-97457397D01*
X121296984Y-97335376D01*
X121542958Y-97162037D01*
X121750389Y-96944041D01*
X121805973Y-96856209D01*
X121887688Y-96978505D01*
X122101495Y-97192312D01*
X122352905Y-97360299D01*
X122632257Y-97476011D01*
X122928816Y-97535000D01*
X123231184Y-97535000D01*
X123527743Y-97476011D01*
X123807095Y-97360299D01*
X124058505Y-97192312D01*
X124272312Y-96978505D01*
X124440299Y-96727095D01*
X124556011Y-96447743D01*
X124615000Y-96151184D01*
X124615000Y-95848816D01*
X124556011Y-95552257D01*
X124440299Y-95272905D01*
X124272312Y-95021495D01*
X124058505Y-94807688D01*
X123965000Y-94745210D01*
X123965000Y-82123466D01*
X123969281Y-82079999D01*
X123965000Y-82036533D01*
X123965000Y-82036523D01*
X123952195Y-81906510D01*
X123901589Y-81739687D01*
X123819411Y-81585941D01*
X123802252Y-81565032D01*
X132785693Y-81565032D01*
X133289527Y-82152567D01*
X134151735Y-82601564D01*
X135084969Y-82873724D01*
X136053368Y-82958591D01*
X137019716Y-82852901D01*
X137946876Y-82560716D01*
X138710473Y-82152567D01*
X139214307Y-81565032D01*
X136000000Y-78350725D01*
X132785693Y-81565032D01*
X123802252Y-81565032D01*
X123708817Y-81451183D01*
X123675044Y-81423466D01*
X123656534Y-81404956D01*
X123628817Y-81371183D01*
X123494059Y-81260589D01*
X123340313Y-81178411D01*
X123173490Y-81127805D01*
X123043477Y-81115000D01*
X123043469Y-81115000D01*
X123000000Y-81110719D01*
X122956531Y-81115000D01*
X101134521Y-81115000D01*
X101114637Y-81085241D01*
X100914759Y-80885363D01*
X100679727Y-80728320D01*
X100418574Y-80620147D01*
X100141335Y-80565000D01*
X99858665Y-80565000D01*
X99581426Y-80620147D01*
X99320273Y-80728320D01*
X99085241Y-80885363D01*
X98885363Y-81085241D01*
X98728320Y-81320273D01*
X98620147Y-81581426D01*
X98565000Y-81858665D01*
X93815000Y-81858665D01*
X93759853Y-81581426D01*
X93651680Y-81320273D01*
X93494637Y-81085241D01*
X93294759Y-80885363D01*
X93059727Y-80728320D01*
X92798574Y-80620147D01*
X92521335Y-80565000D01*
X92238665Y-80565000D01*
X91961426Y-80620147D01*
X91700273Y-80728320D01*
X91465241Y-80885363D01*
X91265363Y-81085241D01*
X91245479Y-81115000D01*
X91043476Y-81115000D01*
X91000000Y-81110718D01*
X90956523Y-81115000D01*
X90826510Y-81127805D01*
X90659687Y-81178411D01*
X90505941Y-81260589D01*
X90371183Y-81371183D01*
X90260589Y-81505941D01*
X90178411Y-81659687D01*
X90127805Y-81826510D01*
X90110718Y-82000000D01*
X90115000Y-82043477D01*
X90115001Y-97876521D01*
X90110719Y-97920000D01*
X90127805Y-98093490D01*
X90178412Y-98260313D01*
X90260590Y-98414059D01*
X90343468Y-98515046D01*
X90343471Y-98515049D01*
X90371184Y-98548817D01*
X90404951Y-98576529D01*
X91191983Y-99363561D01*
X91185000Y-99398665D01*
X91185000Y-99681335D01*
X91240147Y-99958574D01*
X91348320Y-100219727D01*
X91505363Y-100454759D01*
X91705241Y-100654637D01*
X91937759Y-100810000D01*
X91705241Y-100965363D01*
X91505363Y-101165241D01*
X91348320Y-101400273D01*
X91240147Y-101661426D01*
X91185000Y-101938665D01*
X91185000Y-102221335D01*
X91240147Y-102498574D01*
X91348320Y-102759727D01*
X91505363Y-102994759D01*
X91705241Y-103194637D01*
X91937759Y-103350000D01*
X91705241Y-103505363D01*
X91505363Y-103705241D01*
X91348320Y-103940273D01*
X91240147Y-104201426D01*
X91185000Y-104478665D01*
X91185000Y-104761335D01*
X91240147Y-105038574D01*
X91348320Y-105299727D01*
X91505363Y-105534759D01*
X91705241Y-105734637D01*
X91937759Y-105890000D01*
X91705241Y-106045363D01*
X91505363Y-106245241D01*
X91348320Y-106480273D01*
X91240147Y-106741426D01*
X91185000Y-107018665D01*
X91185000Y-107301335D01*
X91240147Y-107578574D01*
X91348320Y-107839727D01*
X91505363Y-108074759D01*
X91705241Y-108274637D01*
X91937759Y-108430000D01*
X91705241Y-108585363D01*
X91505363Y-108785241D01*
X91348320Y-109020273D01*
X91240147Y-109281426D01*
X91185000Y-109558665D01*
X91185000Y-109841335D01*
X91240147Y-110118574D01*
X91348320Y-110379727D01*
X91505363Y-110614759D01*
X91705241Y-110814637D01*
X91735001Y-110834522D01*
X91735000Y-111105478D01*
X91705241Y-111125363D01*
X91505363Y-111325241D01*
X91348320Y-111560273D01*
X91240147Y-111821426D01*
X91185870Y-112094291D01*
X88196532Y-109104954D01*
X88168817Y-109071183D01*
X88034059Y-108960589D01*
X87880313Y-108878411D01*
X87713490Y-108827805D01*
X87583477Y-108815000D01*
X87583469Y-108815000D01*
X87540000Y-108810719D01*
X87496531Y-108815000D01*
X86134521Y-108815000D01*
X86114637Y-108785241D01*
X85914759Y-108585363D01*
X85682241Y-108430000D01*
X85914759Y-108274637D01*
X86114637Y-108074759D01*
X86134521Y-108045000D01*
X87036531Y-108045000D01*
X87080000Y-108049281D01*
X87123469Y-108045000D01*
X87123477Y-108045000D01*
X87253490Y-108032195D01*
X87420313Y-107981589D01*
X87574059Y-107899411D01*
X87708817Y-107788817D01*
X87736534Y-107755044D01*
X88055045Y-107436533D01*
X88088817Y-107408817D01*
X88199411Y-107274059D01*
X88281589Y-107120313D01*
X88332195Y-106953490D01*
X88345000Y-106823477D01*
X88345000Y-106823467D01*
X88349281Y-106780001D01*
X88345000Y-106736535D01*
X88345000Y-99906578D01*
X89445050Y-98806529D01*
X89478818Y-98778816D01*
X89589412Y-98644058D01*
X89671590Y-98490312D01*
X89722196Y-98323489D01*
X89735001Y-98193476D01*
X89735001Y-98193466D01*
X89739282Y-98150000D01*
X89735001Y-98106534D01*
X89735001Y-91893470D01*
X89739282Y-91850001D01*
X89735001Y-91806532D01*
X89735001Y-91806524D01*
X89722196Y-91676511D01*
X89671590Y-91509688D01*
X89589412Y-91355942D01*
X89478818Y-91221184D01*
X89445051Y-91193472D01*
X89006535Y-90754957D01*
X88995226Y-90698102D01*
X88917205Y-90509744D01*
X88803937Y-90340226D01*
X88659774Y-90196063D01*
X88490256Y-90082795D01*
X88301898Y-90004774D01*
X88101939Y-89965000D01*
X87898061Y-89965000D01*
X87698102Y-90004774D01*
X87509744Y-90082795D01*
X87340226Y-90196063D01*
X87196063Y-90340226D01*
X87082795Y-90509744D01*
X87004774Y-90698102D01*
X86965000Y-90898061D01*
X86965000Y-91101939D01*
X87004774Y-91301898D01*
X87082795Y-91490256D01*
X87196063Y-91659774D01*
X87340226Y-91803937D01*
X87509744Y-91917205D01*
X87685485Y-91990000D01*
X86010000Y-91990000D01*
X86010000Y-89637087D01*
X86124482Y-89625812D01*
X86244180Y-89589502D01*
X86354494Y-89530537D01*
X86451185Y-89451185D01*
X86530537Y-89354494D01*
X86589502Y-89244180D01*
X86625812Y-89124482D01*
X86638072Y-89000000D01*
X86638072Y-87000000D01*
X86625812Y-86875518D01*
X86589502Y-86755820D01*
X86530537Y-86645506D01*
X86451185Y-86548815D01*
X86354494Y-86469463D01*
X86244180Y-86410498D01*
X86124482Y-86374188D01*
X86000000Y-86361928D01*
X84000000Y-86361928D01*
X83875518Y-86374188D01*
X83755820Y-86410498D01*
X83645506Y-86469463D01*
X83548815Y-86548815D01*
X83469463Y-86645506D01*
X83410498Y-86755820D01*
X83374188Y-86875518D01*
X83361928Y-87000000D01*
X83361928Y-89000000D01*
X83374188Y-89124482D01*
X83410498Y-89244180D01*
X83469463Y-89354494D01*
X83548815Y-89451185D01*
X83645506Y-89530537D01*
X83755820Y-89589502D01*
X83875518Y-89625812D01*
X83990001Y-89637087D01*
X83990000Y-92950392D01*
X83985114Y-93000000D01*
X83990001Y-93049618D01*
X83990000Y-95600130D01*
X83955820Y-95610498D01*
X83845506Y-95669463D01*
X83748815Y-95748815D01*
X83669463Y-95845506D01*
X83610498Y-95955820D01*
X83574188Y-96075518D01*
X83561928Y-96200000D01*
X83561928Y-97800000D01*
X83574188Y-97924482D01*
X83610498Y-98044180D01*
X83669463Y-98154494D01*
X83748815Y-98251185D01*
X83845506Y-98330537D01*
X83955820Y-98389502D01*
X84075518Y-98425812D01*
X84083961Y-98426643D01*
X83885363Y-98625241D01*
X83728320Y-98860273D01*
X83620147Y-99121426D01*
X83565000Y-99398665D01*
X83565000Y-99681335D01*
X83620147Y-99958574D01*
X83728320Y-100219727D01*
X83885363Y-100454759D01*
X84085241Y-100654637D01*
X84317759Y-100810000D01*
X84085241Y-100965363D01*
X83935604Y-101115000D01*
X81885000Y-101115000D01*
X81885000Y-86043477D01*
X81889282Y-86000000D01*
X81872195Y-85826510D01*
X81821589Y-85659687D01*
X81739411Y-85505941D01*
X81628817Y-85371183D01*
X81494059Y-85260589D01*
X81340313Y-85178411D01*
X81173490Y-85127805D01*
X81043477Y-85115000D01*
X81043476Y-85115000D01*
X81000000Y-85110718D01*
X80956523Y-85115000D01*
X72754521Y-85115000D01*
X72734637Y-85085241D01*
X72534759Y-84885363D01*
X72299727Y-84728320D01*
X72038574Y-84620147D01*
X71761335Y-84565000D01*
X71478665Y-84565000D01*
X71201426Y-84620147D01*
X70940273Y-84728320D01*
X70705241Y-84885363D01*
X70505363Y-85085241D01*
X70348320Y-85320273D01*
X70240147Y-85581426D01*
X70185000Y-85858665D01*
X70185000Y-86141335D01*
X70240147Y-86418574D01*
X70348320Y-86679727D01*
X70505363Y-86914759D01*
X70705241Y-87114637D01*
X70940273Y-87271680D01*
X71201426Y-87379853D01*
X71478665Y-87435000D01*
X71761335Y-87435000D01*
X72038574Y-87379853D01*
X72299727Y-87271680D01*
X72534759Y-87114637D01*
X72734637Y-86914759D01*
X72754521Y-86885000D01*
X80115000Y-86885000D01*
X80115001Y-101956513D01*
X80110718Y-102000000D01*
X80127805Y-102173490D01*
X80178411Y-102340313D01*
X80260589Y-102494059D01*
X80371183Y-102628817D01*
X80505941Y-102739411D01*
X80659687Y-102821589D01*
X80826510Y-102872195D01*
X80956523Y-102885000D01*
X80956524Y-102885000D01*
X81000000Y-102889282D01*
X81043477Y-102885000D01*
X83812025Y-102885000D01*
X83885363Y-102994759D01*
X84085241Y-103194637D01*
X84317759Y-103350000D01*
X84085241Y-103505363D01*
X83885363Y-103705241D01*
X83865479Y-103735000D01*
X82423465Y-103735000D01*
X82379999Y-103730719D01*
X82336533Y-103735000D01*
X82336523Y-103735000D01*
X82206510Y-103747805D01*
X82039687Y-103798411D01*
X81885941Y-103880589D01*
X81751183Y-103991183D01*
X81723466Y-104024956D01*
X81404956Y-104343466D01*
X81371183Y-104371183D01*
X81260589Y-104505942D01*
X81178411Y-104659688D01*
X81127805Y-104826511D01*
X81115000Y-104956524D01*
X81115000Y-104956531D01*
X81110719Y-105000000D01*
X81115000Y-105043469D01*
X81115001Y-110990000D01*
X64019396Y-110990000D01*
X63914759Y-110885363D01*
X63679727Y-110728320D01*
X63418574Y-110620147D01*
X63141335Y-110565000D01*
X62858665Y-110565000D01*
X62581426Y-110620147D01*
X62320273Y-110728320D01*
X62264790Y-110765393D01*
X62251185Y-110748815D01*
X62154494Y-110669463D01*
X62044180Y-110610498D01*
X61924482Y-110574188D01*
X61885000Y-110570299D01*
X61885000Y-99822223D01*
X69195000Y-99822223D01*
X69195000Y-100177777D01*
X69264365Y-100526499D01*
X69400429Y-100854988D01*
X69597965Y-101150621D01*
X69849379Y-101402035D01*
X70145012Y-101599571D01*
X70473501Y-101735635D01*
X70822223Y-101805000D01*
X71177777Y-101805000D01*
X71526499Y-101735635D01*
X71854988Y-101599571D01*
X72150621Y-101402035D01*
X72402035Y-101150621D01*
X72579518Y-100885000D01*
X74461546Y-100885000D01*
X74509744Y-100917205D01*
X74698102Y-100995226D01*
X74898061Y-101035000D01*
X75101939Y-101035000D01*
X75301898Y-100995226D01*
X75490256Y-100917205D01*
X75659774Y-100803937D01*
X75803937Y-100659774D01*
X75917205Y-100490256D01*
X75995226Y-100301898D01*
X76035000Y-100101939D01*
X76035000Y-99898061D01*
X75995226Y-99698102D01*
X75917205Y-99509744D01*
X75803937Y-99340226D01*
X75659774Y-99196063D01*
X75490256Y-99082795D01*
X75301898Y-99004774D01*
X75101939Y-98965000D01*
X74898061Y-98965000D01*
X74698102Y-99004774D01*
X74509744Y-99082795D01*
X74461546Y-99115000D01*
X72579518Y-99115000D01*
X72402035Y-98849379D01*
X72150621Y-98597965D01*
X71854988Y-98400429D01*
X71526499Y-98264365D01*
X71177777Y-98195000D01*
X70822223Y-98195000D01*
X70473501Y-98264365D01*
X70145012Y-98400429D01*
X69849379Y-98597965D01*
X69597965Y-98849379D01*
X69400429Y-99145012D01*
X69264365Y-99473501D01*
X69195000Y-99822223D01*
X61885000Y-99822223D01*
X61885000Y-99079518D01*
X62150621Y-98902035D01*
X62402035Y-98650621D01*
X62599571Y-98354988D01*
X62735635Y-98026499D01*
X62805000Y-97677777D01*
X62805000Y-97322223D01*
X62735635Y-96973501D01*
X62599571Y-96645012D01*
X62402035Y-96349379D01*
X62150621Y-96097965D01*
X61885000Y-95920482D01*
X61885000Y-95885000D01*
X69420482Y-95885000D01*
X69597965Y-96150621D01*
X69849379Y-96402035D01*
X70145012Y-96599571D01*
X70473501Y-96735635D01*
X70822223Y-96805000D01*
X71177777Y-96805000D01*
X71526499Y-96735635D01*
X71854988Y-96599571D01*
X72150621Y-96402035D01*
X72402035Y-96150621D01*
X72599571Y-95854988D01*
X72735635Y-95526499D01*
X72805000Y-95177777D01*
X72805000Y-94822223D01*
X72735635Y-94473501D01*
X72599571Y-94145012D01*
X72402035Y-93849379D01*
X72150621Y-93597965D01*
X71854988Y-93400429D01*
X71526499Y-93264365D01*
X71177777Y-93195000D01*
X70822223Y-93195000D01*
X70473501Y-93264365D01*
X70145012Y-93400429D01*
X69849379Y-93597965D01*
X69597965Y-93849379D01*
X69420482Y-94115000D01*
X61885000Y-94115000D01*
X61885000Y-86885000D01*
X62865479Y-86885000D01*
X62885363Y-86914759D01*
X63085241Y-87114637D01*
X63320273Y-87271680D01*
X63581426Y-87379853D01*
X63858665Y-87435000D01*
X64141335Y-87435000D01*
X64418574Y-87379853D01*
X64679727Y-87271680D01*
X64914759Y-87114637D01*
X65114637Y-86914759D01*
X65271680Y-86679727D01*
X65379853Y-86418574D01*
X65435000Y-86141335D01*
X65435000Y-85858665D01*
X65379853Y-85581426D01*
X65271680Y-85320273D01*
X65114637Y-85085241D01*
X64914759Y-84885363D01*
X64679727Y-84728320D01*
X64418574Y-84620147D01*
X64141335Y-84565000D01*
X63858665Y-84565000D01*
X63581426Y-84620147D01*
X63320273Y-84728320D01*
X63085241Y-84885363D01*
X62885363Y-85085241D01*
X62865479Y-85115000D01*
X61043477Y-85115000D01*
X61000000Y-85110718D01*
X60956524Y-85115000D01*
X60956523Y-85115000D01*
X60826510Y-85127805D01*
X60659687Y-85178411D01*
X60505941Y-85260589D01*
X60371183Y-85371183D01*
X60260589Y-85505941D01*
X60178411Y-85659687D01*
X60127805Y-85826510D01*
X60110718Y-86000000D01*
X60115001Y-86043487D01*
X60115000Y-94956521D01*
X60110718Y-95000000D01*
X60115000Y-95043479D01*
X60115000Y-95920482D01*
X59849379Y-96097965D01*
X59597965Y-96349379D01*
X59400429Y-96645012D01*
X59264365Y-96973501D01*
X59195000Y-97322223D01*
X54660000Y-97322223D01*
X54660000Y-81565032D01*
X55785693Y-81565032D01*
X56289527Y-82152567D01*
X57151735Y-82601564D01*
X58084969Y-82873724D01*
X59053368Y-82958591D01*
X60019716Y-82852901D01*
X60946876Y-82560716D01*
X61710473Y-82152567D01*
X62214307Y-81565032D01*
X59000000Y-78350725D01*
X55785693Y-81565032D01*
X54660000Y-81565032D01*
X54660000Y-80359809D01*
X54847433Y-80710473D01*
X55434968Y-81214307D01*
X58649275Y-78000000D01*
X59350725Y-78000000D01*
X62565032Y-81214307D01*
X63152567Y-80710473D01*
X63601564Y-79848265D01*
X63873724Y-78915031D01*
X63949237Y-78053368D01*
X131041409Y-78053368D01*
X131147099Y-79019716D01*
X131439284Y-79946876D01*
X131847433Y-80710473D01*
X132434968Y-81214307D01*
X135649275Y-78000000D01*
X132434968Y-74785693D01*
X131847433Y-75289527D01*
X131398436Y-76151735D01*
X131126276Y-77084969D01*
X131041409Y-78053368D01*
X63949237Y-78053368D01*
X63958591Y-77946632D01*
X63852901Y-76980284D01*
X63560716Y-76053124D01*
X63152567Y-75289527D01*
X62565032Y-74785693D01*
X59350725Y-78000000D01*
X58649275Y-78000000D01*
X58635133Y-77985858D01*
X58985858Y-77635133D01*
X59000000Y-77649275D01*
X62214307Y-74434968D01*
X61710473Y-73847433D01*
X61350546Y-73660000D01*
X133640191Y-73660000D01*
X133289527Y-73847433D01*
%TD*%
M02*
